<?xml version="1.0" encoding="UTF-8"?>
<svg id="_图层_2" data-name="图层 2" xmlns="http://www.w3.org/2000/svg" viewBox="0 0 56.69 56.69">
  <defs>
    <style>
      .no-entry-forbidden {
        fill: #d80c24;
      }

      .no-entry-forbidden, .no-entry-bg, .no-entry-person {
        stroke-width: 0px;
      }

      .no-entry-bg {
        fill: #fff;
      }

      .no-entry-person {
        fill: #001d31;
      }
    </style>
  </defs>
  <g id="_图层_1-2" data-name="图层 1">
    <g>
      <path class="no-entry-bg" d="M28.41,28.28s-.08.09-.11.14h0s.12-.14.12-.14Z"/>
      <path class="no-entry-bg" d="M56.69,28.35c0,15.65-12.69,28.35-28.35,28.35S0,44,0,28.35,12.69,0,28.35,0s28.35,12.69,28.35,28.35"/>
      <path class="no-entry-person" d="M37.8,45.61c0,.9-.74,1.64-1.65,1.64-.57,0-1.07-.29-1.37-.73l-.1-.17s-.01-.02-.01-.03l-3.86-6.55c-.04-.06-.07-.13-.09-.2l-1.14-3.25c-.03-.07-.12-.09-.17-.03l-2.81,3.17c-.08.09-.13.19-.15.31l-.81,5.49c-.07.84-.78,1.49-1.64,1.49-.91,0-1.65-.73-1.65-1.64,0-.05,0-.09,0-.14l.02-.17s0-.01,0-.02l.87-6.3c.04-.26.12-.51.26-.73l3.2-5.31.03-2.51c0-.41-.01-.82-.05-1.23l-.21-2.22-.67,1.1c-.08.14-.18.26-.29.37l-1.27,1.2-2.77,2.62h-.01s-.14.14-.14.14c-.31.25-.73.39-1.18.32-.64-.1-1.15-.62-1.23-1.25-.06-.44.08-.84.34-1.14,0-.01.02-.03.03-.04h0s3.46-3.77,3.46-3.77c.06-.06.1-.12.15-.19l3.68-6.06v-.02c.62-1.03,1.74-1.72,3.03-1.72,1.01,0,1.93.43,2.57,1.11l3.87,3.8c.28.27.46.62.54,1.01l1.13,5.84c.03.12.04.25.04.38,0,.96-.79,1.74-1.76,1.74-.83,0-1.53-.57-1.71-1.34l-.03-.14s0,0,0-.01l-1.11-5.39c-.03-.17-.14-.31-.29-.4l-.36-.21.48,4.26c.03.24.04.49.03.74l-.11,3.34,1.13,5.75c.03.14.08.28.15.41l3.37,5.81c.16.25.26.55.26.88"/>
      <path class="no-entry-person" d="M32.24,12.85c0,1.8-1.46,3.26-3.26,3.26s-3.26-1.46-3.26-3.26,1.46-3.26,3.26-3.26,3.26,1.46,3.26,3.26"/>
      <path class="no-entry-forbidden" d="M28.34,2.36C14,2.36,2.36,13.99,2.36,28.35s11.63,25.98,25.98,25.98,25.99-11.63,25.99-25.98S42.7,2.36,28.34,2.36M28.34,4.73c13.05,0,23.63,10.57,23.63,23.62,0,6.1-2.31,11.66-6.11,15.85L12.5,10.83c4.19-3.8,9.75-6.11,15.84-6.11M28.34,51.97c-13.04,0-23.62-10.57-23.62-23.62,0-6.1,2.31-11.66,6.11-15.85l33.36,33.36c-4.19,3.8-9.75,6.11-15.85,6.11"/>
    </g>
  </g>
</svg>