<?xml version="1.0" encoding="UTF-8"?>
<svg id="_图层_2" data-name="图层 2" xmlns="http://www.w3.org/2000/svg" viewBox="0 0 56.69 56.69">
  <defs>
    <style>
      .cls-1 {
        fill: #fff;
        stroke-width: 0px;
      }
    </style>
  </defs>
  <g id="_图层_1-2" data-name="图层 1">
    <g>
      <path class="cls-1" d="M50.32,1.5c2.69,0,4.88,2.19,4.88,4.88v43.94c0,2.69-2.19,4.88-4.88,4.88H6.38c-2.69,0-4.88-2.19-4.88-4.88V6.38C1.5,3.69,3.69,1.5,6.38,1.5h43.94ZM50.32,0H6.38C2.86,0,0,2.86,0,6.38v43.94c0,3.52,2.86,6.38,6.38,6.38h43.94c3.52,0,6.38-2.86,6.38-6.38V6.38c0-3.52-2.86-6.38-6.38-6.38"/>
      <path class="cls-1" d="M21.56,11.74c0,1.79,1.45,3.24,3.24,3.24s3.24-1.45,3.24-3.24-1.45-3.24-3.24-3.24-3.24,1.45-3.24,3.24"/>
      <path class="cls-1" d="M22.41,16.4c-1.83.31-3.06,2.03-2.76,3.86l1.7,10.13.48,2.84c.2,1.17,1.21,2.03,2.4,2.03h12.04c.36,0,.69.22.81.57l3.97,10.67c.43,1.17,1.74,1.76,2.9,1.33,1.17-.43,1.77-1.73,1.33-2.9l-3.6-9.66-1.03-2.78c-.47-1.25-1.67-2.09-3.01-2.09h-8.87c-.36,0-.67-.26-.73-.62l-.46-2.77c-.04-.22.14-.42.36-.42h6.1c.83,0,1.5-.67,1.5-1.5s-.67-1.5-1.5-1.5h-6.47c-.32,0-.6-.23-.65-.55l-.65-3.88c-.31-1.82-2.04-3.06-3.86-2.75"/>
      <path class="cls-1" d="M11.26,36.02c.14,6.74,5.74,12.19,12.49,12.17,6.62-.03,12.03-5.23,12.37-11.76,0-.07-.06-.14-.13-.14h-2.35c-.07,0-.13.05-.13.12-.34,5.18-4.7,9.26-10,9.16-5.14-.1-9.38-4.2-9.63-9.33-.2-4.17,2.21-7.81,5.74-9.42.05-.02.08-.08.08-.14l-.4-2.38c-.01-.08-.1-.13-.18-.1-4.68,1.85-7.97,6.45-7.86,11.81"/>
    </g>
  </g>
</svg>