<?xml version="1.0" encoding="UTF-8"?>
<svg id="_图层_2" data-name="图层 2" xmlns="http://www.w3.org/2000/svg" viewBox="0 0 48.19 42.52">
  <defs>
    <style>
      .cls-1 {
        fill: #fff;
        stroke-width: 0px;
      }
    </style>
  </defs>
  <g id="_图层_1-2" data-name="图层 1">
    <g>
      <path class="cls-1" d="M10.18,7.22c-1.67.28-2.79,1.86-2.52,3.53l1.55,9.26.43,2.6c.18,1.07,1.11,1.85,2.19,1.85h11c.33,0,.63.21.74.52l3.63,9.75c.4,1.07,1.58,1.61,2.65,1.21,1.07-.4,1.61-1.58,1.21-2.65l-3.28-8.83-.94-2.54c-.43-1.15-1.52-1.91-2.74-1.91h-8.1c-.33,0-.61-.24-.67-.57l-.42-2.53c-.03-.2.12-.39.33-.39h5.56c.76,0,1.37-.61,1.37-1.37s-.61-1.37-1.37-1.37h-5.91c-.29,0-.54-.21-.59-.5l-.59-3.55c-.28-1.67-1.86-2.8-3.53-2.52"/>
      <path class="cls-1" d="M9.4,2.96c0,1.63,1.33,2.96,2.96,2.96s2.96-1.32,2.96-2.96-1.32-2.96-2.96-2.96-2.96,1.32-2.96,2.96"/>
      <path class="cls-1" d="M0,25.17c.12,6.16,5.24,11.15,11.41,11.12,6.05-.03,10.98-4.78,11.29-10.75,0-.07-.05-.13-.12-.13h-2.15c-.06,0-.11.05-.12.11-.31,4.74-4.29,8.47-9.13,8.38-4.69-.09-8.57-3.84-8.79-8.53-.18-3.82,2.02-7.14,5.24-8.61.05-.02.08-.07.07-.13l-.36-2.18c-.01-.07-.09-.12-.16-.09C2.91,16.06-.1,20.27,0,25.17"/>
      <polygon class="cls-1" points="0 42.52 48.19 42.52 48.19 33.05 0 42.52"/>
    </g>
  </g>
</svg>