<?xml version="1.0" encoding="UTF-8"?>
<svg id="_图层_2" data-name="图层 2" xmlns="http://www.w3.org/2000/svg" viewBox="0 0 48.19 48.19">
  <defs>
    <style>
      .cls-1 {
        fill: #fff;
        stroke-width: 0px;
      }
    </style>
  </defs>
  <g id="_图层_1-2" data-name="图层 1">
    <g>
      <path class="cls-1" d="M.59,37.82c-.17,0-.33-.07-.45-.21-.21-.25-.18-.62.07-.83L43.13.14c.25-.21.62-.18.83.07.21.25.18.62-.07.83L.97,37.68c-.11.1-.25.14-.38.14"/>
      <path class="cls-1" d="M4.68,48.19c-.17,0-.33-.07-.45-.21-.21-.25-.18-.62.07-.83L47.21,10.51c.25-.21.62-.18.83.07.21.25.18.62-.07.83L5.06,48.05c-.11.1-.25.14-.38.14"/>
      <rect class="cls-1" x="6.83" y="32.66" width="33.42" height="3.42"/>
      <path class="cls-1" d="M27.77,8.68c1.3.22,2.18,1.45,1.96,2.75l-1.21,7.22-.34,2.02c-.14.83-.86,1.45-1.71,1.45h-8.57c-.26,0-.49.16-.58.4l-2.83,7.6c-.31.83-1.24,1.26-2.07.95-.83-.31-1.26-1.24-.95-2.07l2.56-6.89.74-1.98c.33-.89,1.19-1.49,2.14-1.49h6.31c.26,0,.48-.19.52-.44l.33-1.97c.03-.16-.1-.3-.26-.3h-4.34c-.59,0-1.07-.48-1.07-1.07s.48-1.07,1.07-1.07h4.61c.23,0,.42-.16.46-.39l.46-2.76c.22-1.3,1.45-2.18,2.75-1.96"/>
      <path class="cls-1" d="M28.38,5.36c0,1.27-1.03,2.31-2.31,2.31s-2.31-1.03-2.31-2.31,1.03-2.31,2.31-2.31,2.31,1.03,2.31,2.31"/>
      <path class="cls-1" d="M35.7,22.67c-.1,4.8-4.09,8.69-8.89,8.67-4.71-.02-8.56-3.72-8.8-8.38,0-.05.04-.1.09-.1h1.67s.09.04.09.09c.24,3.69,3.34,6.6,7.11,6.53,3.65-.07,6.68-3,6.85-6.65.14-2.97-1.57-5.57-4.09-6.71-.04-.02-.06-.06-.05-.1l.28-1.7c0-.06.07-.09.13-.07,3.33,1.32,5.67,4.6,5.6,8.42"/>
    </g>
  </g>
</svg>