<?xml version="1.0" encoding="UTF-8"?>
<svg id="_图层_2" data-name="图层 2" xmlns="http://www.w3.org/2000/svg" viewBox="0 0 48.74 56.69">
  <defs>
    <style>
      .cls-1 {
        fill: #00a0e9;
        stroke-width: 0px;
      }
    </style>
  </defs>
  <g id="_图层_1-2" data-name="图层 1">
    <g>
      <path class="cls-1" d="M15.9,11.28c-2.61.44-4.36,2.9-3.93,5.51l2.42,14.47.68,4.05c.28,1.67,1.73,2.9,3.42,2.9h17.18c.52,0,.98.32,1.16.81l5.66,15.24c.62,1.67,2.47,2.52,4.14,1.9,1.67-.62,2.52-2.48,1.9-4.14l-5.13-13.8-1.47-3.97c-.67-1.79-2.38-2.98-4.29-2.98h-12.65c-.52,0-.96-.37-1.04-.88l-.66-3.95c-.05-.32.19-.61.51-.61h8.7c1.18,0,2.14-.96,2.14-2.14s-.96-2.14-2.14-2.14h-9.23c-.46,0-.85-.33-.92-.78l-.93-5.54c-.44-2.61-2.9-4.37-5.51-3.93"/>
      <path class="cls-1" d="M14.68,4.62c0,2.55,2.07,4.62,4.62,4.62s4.62-2.07,4.62-4.62S21.85,0,19.3,0s-4.62,2.07-4.62,4.62"/>
      <path class="cls-1" d="M0,39.31c.19,9.63,8.19,17.42,17.82,17.38,9.45-.04,17.15-7.47,17.64-16.8,0-.11-.08-.2-.19-.2h-3.35c-.1,0-.18.08-.18.17-.48,7.4-6.7,13.24-14.26,13.09-7.32-.14-13.38-6.01-13.73-13.32-.29-5.96,3.15-11.16,8.19-13.46.08-.04.12-.12.11-.2l-.57-3.4c-.02-.12-.15-.19-.26-.15C4.54,25.08-.15,31.66,0,39.31"/>
    </g>
  </g>
</svg>