<?xml version="1.0" encoding="UTF-8"?>
<svg id="_图层_2" data-name="图层 2" xmlns="http://www.w3.org/2000/svg" viewBox="0 0 39.69 39.68">
  <defs>
    <style>
      .cls-1 {
        fill: #fff;
        stroke-width: 0px;
      }
    </style>
  </defs>
  <g id="_图层_1-2" data-name="图层 1">
    <g>
      <path class="cls-1" d="M7.27,3.24c0,1.79,1.45,3.24,3.24,3.24s3.24-1.45,3.24-3.24-1.45-3.24-3.24-3.24-3.24,1.45-3.24,3.24"/>
      <path class="cls-1" d="M30.05,22.78c0,.88-.48,1.63-1.18,2l-2.97-3.07c.37-.72,1.11-1.21,1.95-1.21,1.22,0,2.2,1.02,2.2,2.27"/>
      <path class="cls-1" d="M39.41,34.43c-.17.18-.75.46-1.58-.39l-4.56-4.7c1.06-.44,2.32-.22,3.17.66l2.84,2.92c.45.47.58,1.05.13,1.52"/>
      <path class="cls-1" d="M19.7,16.78h1.92c.82,0,1.46-.73,1.32-1.57-.11-.66-.73-1.12-1.4-1.12h-6.72c-.14,0-.25-.1-.27-.24l-.53-3.41c-.56-3.6-5.65-3.86-6.57-.33L3.15,26.6h2.08v1.86c0,.22-.08.43-.22.6L.41,34.53c-.94,1.12-.24,3.08,1.84,2.93.21-.02.4-.13.54-.29l2.44-2.9,3.3-3.92c.14-.17.22-.38.22-.6v-3.14h1.62v11.12c0,.97.79,1.76,1.76,1.76s1.76-.79,1.76-1.76v-11.12h2.67l-1.48-9.51c-.03-.17.1-.32.28-.32h3.5c-.38.06-.7.23-.98.52l-.4.41c-.35.36-.55.85-.55,1.36v1.21c0,.38.3.69.67.69s.67-.31.67-.69v-1.21c0-.15.06-.29.16-.38l.4-.42c.2-.21.55-.21.75,0l3.99,4.12v11.11c0,1.07.83,1.93,1.87,1.93h.83l-.56,1.63c-.66.04-1.19.61-1.19,1.31s.57,1.32,1.28,1.32,1.28-.59,1.28-1.32c0-.38-.16-.73-.42-.97l.67-1.97h4.98l-.55,1.63c-.67.04-1.19.61-1.19,1.31s.57,1.32,1.28,1.32,1.28-.59,1.28-1.32c0-.38-.16-.73-.42-.97l.67-1.97h.75c1.03,0,1.87-.86,1.87-1.93v-.24l-15.47-15.96c-.28-.29-.67-.46-1.05-.52h.26Z"/>
    </g>
  </g>
</svg>