<?xml version="1.0" encoding="UTF-8"?>
<svg id="_图层_2" data-name="图层 2" xmlns="http://www.w3.org/2000/svg" viewBox="0 0 53.86 56.69">
  <defs>
    <style>
      .cls-1 {
        fill: #00a0e9;
        stroke-width: 0px;
      }
    </style>
  </defs>
  <g id="_图层_1-2" data-name="图层 1">
    <g>
      <path class="cls-1" d="M10.69,5.13l.32-.88c.05-.15.1-.3.13-.46.06-.3.09-.52.09-.89,0-1.6-1.37-2.9-3.06-2.9h-.08c-1.69,0-3.06,1.3-3.06,2.9,0,.37.03.58.09.89.03.15.07.31.13.46l.32.88c.09.41-.24.79-.69.79h-2.26c-1.44,0-2.61,1.11-2.61,2.48s1.17,2.48,2.61,2.48h10.84c1.45,0,2.62-1.11,2.62-2.48s-1.17-2.48-2.62-2.48h-2.08c-.44,0-.77-.38-.69-.79"/>
      <path class="cls-1" d="M12.3,12.38H3.77c-1.81,0-3.27,1.47-3.27,3.27v20.96c0,1.81,1.47,3.27,3.27,3.27h8.53c1.81,0,3.28-1.47,3.28-3.27V15.66c0-1.81-1.47-3.27-3.28-3.27M13.78,36.62c0,.82-.66,1.48-1.48,1.48H3.77c-.82,0-1.48-.67-1.48-1.48v-1.65h4.44c.54,0,.99-.44.99-.99s-.44-.99-.99-.99H2.29v-3.26h4.44c.54,0,.99-.44.99-.99s-.44-.99-.99-.99H2.29v-3.26h4.44c.54,0,.99-.44.99-.99s-.44-.99-.99-.99H2.29v-3.26h4.44c.54,0,.99-.44.99-.99s-.44-.99-.99-.99H2.29v-1.65c0-.82.67-1.48,1.48-1.48h8.53c.82,0,1.48.67,1.48,1.48v20.96Z"/>
      <path class="cls-1" d="M44.05,16.92c0,3.34-2.71,6.04-6.04,6.04s-6.04-2.7-6.04-6.04,2.71-6.04,6.04-6.04,6.04,2.7,6.04,6.04"/>
      <path class="cls-1" d="M52.93,35.25l-8.91-7.84c-3.44-3.03-8.6-3.03-12.04,0l-8.91,7.84c-1.12.99-1.24,2.69-.27,3.83.99,1.16,2.74,1.29,3.89.28l4.41-3.88v2.53h13.81v-2.53l4.41,3.88c1.15,1.01,2.9.88,3.89-.28.97-1.14.85-2.84-.27-3.83"/>
      <path class="cls-1" d="M32.97,47.72l2.87-2.87-4.81-4.81-4.54,4.54c-1.55,1.55-1.55,4.07,0,5.62l5.67,5.67c1.09,1.09,2.85,1.09,3.93,0,1.09-1.09,1.09-2.85,0-3.93l-3.12-3.12c-.31-.31-.31-.8,0-1.11"/>
      <path class="cls-1" d="M43.04,47.72l-2.87-2.87,4.81-4.81,4.54,4.54c1.55,1.55,1.55,4.07,0,5.62l-5.67,5.67c-1.09,1.09-2.85,1.09-3.93,0-1.09-1.09-1.09-2.85,0-3.93l3.12-3.12c.31-.31.31-.8,0-1.11"/>
    </g>
  </g>
</svg>