<?xml version="1.0" encoding="UTF-8"?>
<svg id="_图层_2" data-name="图层 2" xmlns="http://www.w3.org/2000/svg" viewBox="0 0 24.53 39.68">
  <defs>
    <style>
      .cls-1 {
        fill: #fff;
        stroke-width: 0px;
      }
    </style>
  </defs>
  <g id="_图层_1-2" data-name="图层 1">
    <g>
      <path class="cls-1" d="M18.05,3.24c0,1.79,1.45,3.24,3.24,3.24s3.24-1.45,3.24-3.24-1.45-3.24-3.24-3.24-3.24,1.45-3.24,3.24"/>
      <path class="cls-1" d="M21.41,19.61c.52.02,1.02-.26,1.24-.76.29-.65,0-1.42-.66-1.71l-3.54-1.58c-.13-.06-.21-.18-.21-.32v-6.72c0-1.6-1.3-2.9-2.91-2.9-2.3,0-4.94,1.24-7.99,3.79-4.04,3.37-5.59,7.21-6.01,8.41-1.02,2.94-1.34,4.81-1.34,7.5h3.86v12.29c0,1.15.93,2.09,2.09,2.09s2.09-.93,2.09-2.09v-12.29h3.69c0-2.54.06-4.41.94-7.77.39-1.49.96-2.46,1.61-3.19.31-.35.9-.14.89.33l-.02,2.16c0,.31.19.59.48.7l5.38,1.99c-.13-.02-.27-.04-.4-.04-1.74,0-3.15,1.41-3.15,3.15h1.34c0-.99.81-1.8,1.8-1.8s1.8.81,1.8,1.8v17.05h1.34v-17.05c0-1.45-1-2.67-2.34-3.03"/>
    </g>
  </g>
</svg>