<?xml version="1.0" encoding="UTF-8"?>
<svg id="_图层_2" data-name="图层 2" xmlns="http://www.w3.org/2000/svg" viewBox="0 0 56.69 56.69">
  <defs>
    <style>
      .cls-1 {
        fill: #fff;
        stroke-width: 0px;
      }
    </style>
  </defs>
  <g id="_图层_1-2" data-name="图层 1">
    <g>
      <g>
        <path class="cls-1" d="M34.13,11.74c0,1.79,1.45,3.24,3.24,3.24s3.24-1.45,3.24-3.24-1.45-3.24-3.24-3.24-3.24,1.45-3.24,3.24"/>
        <path class="cls-1" d="M37.5,28.11c.52.02,1.02-.26,1.24-.76.29-.65,0-1.42-.66-1.71l-3.54-1.58c-.13-.06-.21-.18-.21-.32v-6.72c0-1.6-1.3-2.9-2.91-2.9-2.3,0-4.94,1.24-7.99,3.79-4.04,3.37-5.59,7.21-6.01,8.41-1.02,2.94-1.34,4.81-1.34,7.5h3.86v12.29c0,1.15.93,2.09,2.09,2.09s2.09-.93,2.09-2.09v-12.29h3.69c0-2.54.06-4.41.94-7.77.39-1.49.96-2.46,1.61-3.19.31-.35.9-.14.89.33l-.02,2.16c0,.31.19.59.48.7l5.38,1.99c-.13-.02-.27-.04-.4-.04-1.74,0-3.15,1.41-3.15,3.15h1.34c0-.99.81-1.8,1.8-1.8s1.8.81,1.8,1.8v17.05h1.34v-17.05c0-1.45-1-2.67-2.34-3.03"/>
      </g>
      <path class="cls-1" d="M50.32,1.5c2.69,0,4.88,2.19,4.88,4.88v43.94c0,2.69-2.19,4.88-4.88,4.88H6.38c-2.69,0-4.88-2.19-4.88-4.88V6.38C1.5,3.69,3.69,1.5,6.38,1.5h43.94ZM50.32,0H6.38C2.86,0,0,2.86,0,6.38v43.94c0,3.52,2.86,6.38,6.38,6.38h43.94c3.52,0,6.38-2.86,6.38-6.38V6.38c0-3.52-2.86-6.38-6.38-6.38"/>
    </g>
  </g>
</svg>