<?xml version="1.0" encoding="UTF-8"?>
<svg id="_图层_2" data-name="图层 2" xmlns="http://www.w3.org/2000/svg" viewBox="0 0 53.96 56.69">
  <defs>
    <style>
      .cls-1 {
        fill: #00a0e9;
        stroke-width: 0px;
      }
    </style>
  </defs>
  <g id="_图层_1-2" data-name="图层 1">
    <g>
      <rect class="cls-1" y="1.37" width="6.65" height="53.96"/>
      <rect class="cls-1" x="47.31" y="1.37" width="6.65" height="53.96"/>
      <path class="cls-1" d="M40.51,10.98H13.45c-1.71,0-3.1,1.39-3.1,3.1v28.54c0,1.71,1.39,3.1,3.1,3.1h27.06c1.71,0,3.1-1.39,3.1-3.1V14.08c0-1.71-1.39-3.1-3.1-3.1M41.12,41.87c0,.74-.61,1.35-1.35,1.35H14.19c-.74,0-1.35-.6-1.35-1.35V14.83c0-.75.6-1.35,1.35-1.35h25.58c.75,0,1.35.6,1.35,1.35v27.04Z"/>
      <path class="cls-1" d="M25.49,16.44c0,1.04-.84,1.88-1.88,1.88s-1.88-.84-1.88-1.88.84-1.88,1.88-1.88,1.88.84,1.88,1.88"/>
      <path class="cls-1" d="M28,21.23v8.42c0,.44-.36.8-.8.8h0c-.44,0-.8-.36-.8-.8v-7.72c0-.08-.06-.14-.14-.14h0c-.08,0-.14.06-.14.14v19.09c0,.61-.49,1.11-1.11,1.11-.31,0-.58-.12-.78-.32-.2-.2-.32-.48-.32-.78v-11.18c0-.16-.13-.29-.29-.29s-.29.13-.29.29v11.18c0,.61-.49,1.11-1.11,1.11-.31,0-.58-.12-.78-.32-.2-.2-.33-.48-.33-.78v-19.09c0-.08-.06-.14-.14-.14s-.14.06-.14.14v7.72c0,.44-.36.8-.8.8-.22,0-.42-.09-.56-.23-.14-.15-.23-.35-.23-.56v-8.42c0-1.35,1.09-2.44,2.44-2.44h3.88c1.35,0,2.44,1.09,2.44,2.44"/>
      <path class="cls-1" d="M37.24,18.18c0,.78-.63,1.41-1.41,1.41s-1.41-.63-1.41-1.41.63-1.41,1.41-1.41,1.41.63,1.41,1.41"/>
      <path class="cls-1" d="M37.24,22.06c0,.78-.63,1.41-1.41,1.41s-1.41-.63-1.41-1.41.63-1.41,1.41-1.41,1.41.63,1.41,1.41"/>
      <path class="cls-1" d="M37.24,25.94c0,.78-.63,1.41-1.41,1.41s-1.41-.63-1.41-1.41.63-1.41,1.41-1.41,1.41.63,1.41,1.41"/>
      <polygon class="cls-1" points="31 4.31 30.99 8.04 28.21 5.07 28.19 9.39 25.72 9.39 25.74 5.07 22.96 8.05 22.97 4.31 26.98 0 31 4.31"/>
      <polygon class="cls-1" points="31 52.38 30.99 48.65 28.21 51.62 28.19 47.31 25.72 47.31 25.74 51.62 22.96 48.65 22.97 52.38 26.98 56.69 31 52.38"/>
    </g>
  </g>
</svg>