<?xml version="1.0" encoding="UTF-8"?>
<svg id="_图层_2" data-name="图层 2" xmlns="http://www.w3.org/2000/svg" viewBox="0 0 53.96 56.69">
  <defs>
    <style>
      .cls-1 {
        fill: #00a0e9;
        stroke-width: 0px;
      }
    </style>
  </defs>
  <g id="_图层_1-2" data-name="图层 1">
    <g>
      <rect class="cls-1" x="47.31" y="1.37" width="6.65" height="53.96"/>
      <rect class="cls-1" y="1.37" width="6.65" height="53.96"/>
      <path class="cls-1" d="M10.35,14.08v28.54c0,1.71,1.39,3.1,3.1,3.1h27.06c1.71,0,3.1-1.39,3.1-3.1V14.08c0-1.71-1.39-3.1-3.1-3.1H13.45c-1.71,0-3.1,1.39-3.1,3.1M12.84,14.83c0-.75.61-1.35,1.35-1.35h25.58c.74,0,1.35.6,1.35,1.35v27.04c0,.74-.6,1.35-1.35,1.35H14.19c-.75,0-1.35-.6-1.35-1.35V14.83Z"/>
      <path class="cls-1" d="M15.81,17.97c0,.78.63,1.41,1.41,1.41s1.41-.63,1.41-1.41-.63-1.41-1.41-1.41-1.41.63-1.41,1.41"/>
      <path class="cls-1" d="M15.81,21.84c0,.78.63,1.41,1.41,1.41s1.41-.63,1.41-1.41-.63-1.41-1.41-1.41-1.41.63-1.41,1.41"/>
      <path class="cls-1" d="M15.81,25.72c0,.78.63,1.41,1.41,1.41s1.41-.63,1.41-1.41-.63-1.41-1.41-1.41-1.41.63-1.41,1.41"/>
      <polygon class="cls-1" points="22.96 4.31 22.97 8.04 25.74 5.07 25.76 9.39 28.24 9.39 28.22 5.07 31 8.05 30.99 4.31 26.98 0 22.96 4.31"/>
      <polygon class="cls-1" points="22.96 52.38 22.97 48.65 25.74 51.62 25.76 47.31 28.24 47.31 28.22 51.62 31 48.65 30.99 52.39 26.98 56.69 22.96 52.38"/>
      <path class="cls-1" d="M30.62,20.98c1.12.19,1.88,1.25,1.69,2.37l-1.04,6.23-.29,1.74c-.12.72-.74,1.25-1.47,1.25h-7.39c-.22,0-.42.14-.5.35l-2.44,6.56c-.27.72-1.07,1.08-1.78.82-.72-.27-1.08-1.07-.82-1.78l2.21-5.94.63-1.71c.29-.77,1.02-1.28,1.85-1.28h5.45c.22,0,.41-.16.45-.38l.29-1.7c.02-.14-.08-.26-.22-.26h-3.74c-.51,0-.92-.41-.92-.92s.41-.92.92-.92h3.97c.2,0,.37-.14.4-.34l.4-2.38c.19-1.12,1.25-1.88,2.37-1.69"/>
      <path class="cls-1" d="M31.23,18.45c0,.96-.78,1.73-1.73,1.73s-1.73-.78-1.73-1.73.77-1.73,1.73-1.73,1.73.78,1.73,1.73"/>
      <path class="cls-1" d="M37.46,33.05c-.08,4.14-3.52,7.5-7.67,7.48-4.07-.02-7.38-3.21-7.59-7.23,0-.05.04-.08.08-.08h1.44s.08.03.08.08c.21,3.18,2.89,5.7,6.14,5.63,3.15-.06,5.76-2.58,5.91-5.73.12-2.57-1.36-4.8-3.53-5.79-.03-.01-.05-.05-.05-.09l.24-1.46s.06-.08.11-.06c2.87,1.14,4.89,3.97,4.83,7.26"/>
    </g>
  </g>
</svg>