<?xml version="1.0" encoding="UTF-8"?>
<svg id="_图层_2" data-name="图层 2" xmlns="http://www.w3.org/2000/svg" viewBox="0 0 20.6 45.35">
  <defs>
    <style>
      .cls-1 {
        fill: #fff;
        stroke-width: 0px;
      }
    </style>
  </defs>
  <g id="_图层_1-2" data-name="图层 1">
    <g>
      <path class="cls-1" d="M18.82,24.34c-1.04-.03-1.89.8-1.89,1.83v-1.29c0-1.05-.81-1.97-1.87-2-1.09-.03-1.98.84-1.98,1.92v-1.48c0-1.05-.81-1.97-1.87-2-1.09-.03-1.98.84-1.98,1.92v-9.67c0-1.11-.86-2.08-1.97-2.12-1.15-.04-2.1.89-2.1,2.03v18.27c0,.14-.11.25-.25.25s-.24-.11-.24-.25v-5.73c0-1.37-1.11-2.48-2.48-2.48-.74,0-1.34.6-1.34,1.34v10.09c0,.83.17,1.65.51,2.4l3.29,7.45c.14.32.47.53.82.53h13.4c.25,0,.48-.13.6-.35l.57-1.01c.36-.63.55-1.35.55-2.08v-15.67c0-1-.77-1.88-1.78-1.91"/>
      <polygon class="cls-1" points="14.32 0 12.79 0 1.6 0 .07 0 0 0 0 14.39 .07 14.39 1.6 14.39 3.96 14.39 3.96 12.79 1.6 12.79 1.6 1.6 12.79 1.6 12.79 12.79 10.43 12.79 10.43 14.39 12.79 14.39 14.32 14.39 14.39 14.39 14.39 0 14.32 0"/>
      <path class="cls-1" d="M10.43,7.2c0,1.79-1.45,3.23-3.23,3.23s-3.23-1.45-3.23-3.23,1.45-3.23,3.23-3.23,3.23,1.45,3.23,3.23"/>
    </g>
  </g>
</svg>