<?xml version="1.0" encoding="UTF-8"?>
<svg id="_图层_2" data-name="图层 2" xmlns="http://www.w3.org/2000/svg" viewBox="0 0 56.69 56.69">
  <defs>
    <style>
      .cls-1 {
        fill: #fff;
        stroke-width: 0px;
      }
    </style>
  </defs>
  <g id="_图层_1-2" data-name="图层 1">
    <g>
      <path class="cls-1" d="M50.32,1.5c2.69,0,4.88,2.19,4.88,4.88v43.94c0,2.69-2.19,4.88-4.88,4.88H6.38c-2.69,0-4.88-2.19-4.88-4.88V6.38C1.5,3.69,3.69,1.5,6.38,1.5h43.94ZM50.32,0H6.38C2.86,0,0,2.86,0,6.38v43.94c0,3.52,2.86,6.38,6.38,6.38h43.94c3.52,0,6.38-2.86,6.38-6.38V6.38c0-3.52-2.86-6.38-6.38-6.38"/>
      <g>
        <path class="cls-1" d="M36.87,30.01c-1.04-.03-1.89.8-1.89,1.83v-1.29c0-1.05-.81-1.97-1.87-2-1.09-.03-1.98.84-1.98,1.92v-1.48c0-1.05-.81-1.97-1.87-2-1.09-.03-1.98.84-1.98,1.92v-9.67c0-1.11-.86-2.08-1.97-2.12-1.15-.04-2.1.89-2.1,2.03v18.27c0,.14-.11.25-.25.25s-.24-.11-.24-.25v-5.73c0-1.37-1.11-2.48-2.48-2.48-.74,0-1.34.6-1.34,1.34v10.09c0,.83.17,1.65.51,2.4l3.29,7.45c.14.32.47.53.82.53h13.4c.25,0,.48-.13.6-.35l.57-1.01c.36-.63.55-1.35.55-2.08v-15.67c0-1-.77-1.88-1.78-1.91"/>
        <polygon class="cls-1" points="32.37 5.67 30.84 5.67 19.65 5.67 18.12 5.67 18.05 5.67 18.05 20.06 18.12 20.06 19.65 20.06 22.01 20.06 22.01 18.46 19.65 18.46 19.65 7.27 30.84 7.27 30.84 18.46 28.48 18.46 28.48 20.06 30.84 20.06 32.37 20.06 32.44 20.06 32.44 5.67 32.37 5.67"/>
        <path class="cls-1" d="M28.48,12.86c0,1.79-1.45,3.23-3.23,3.23s-3.23-1.45-3.23-3.23,1.45-3.23,3.23-3.23,3.23,1.45,3.23,3.23"/>
      </g>
    </g>
  </g>
</svg>