<?xml version="1.0" encoding="UTF-8"?>
<svg id="_图层_2" data-name="图层 2" xmlns="http://www.w3.org/2000/svg" viewBox="0 0 45.35 34.17">
  <defs>
    <style>
      .cls-1 {
        fill: #fff;
        stroke-width: 0px;
      }
    </style>
  </defs>
  <g id="_图层_1-2" data-name="图层 1">
    <g>
      <path class="cls-1" d="M0,28.66c.11,3.1,2.75,5.5,5.85,5.5h5.47c1.46,0,2.87-.58,3.91-1.62l1.86-1.86,18.27-18.26c.45-.45,1.07-.71,1.71-.71h2.59c3.21,0,5.8-2.66,5.69-5.89-.1-3.09-2.74-5.5-5.84-5.5h-5.38c-1.46,0-2.87.58-3.91,1.62l-8.39,8.39v-.73c0-1.91-1.54-3.45-3.45-3.45s-3.45,1.55-3.45,3.45v7.63l-4.83,4.83c-.45.45-1.07.71-1.71.71h-2.68C2.49,22.77-.11,25.43,0,28.66M2.59,28.53c-.03-1.74,1.37-3.17,3.11-3.17h3.03c.92,0,1.79-.36,2.44-1.01l3.75-3.75,6.9-6.91,7.42-7.42,2.36-2.36c.65-.65,1.53-1.01,2.44-1.01h5.5c1.71,0,3.18,1.34,3.21,3.05.03,1.74-1.37,3.17-3.11,3.17h-3.03c-.92,0-1.79.36-2.44,1.01l-17.6,17.6-2.83,2.83c-.65.65-1.52,1.01-2.44,1.01h-5.5c-1.71,0-3.18-1.34-3.21-3.05"/>
      <path class="cls-1" d="M15.68,2.69c0,1.49,1.21,2.69,2.69,2.69s2.69-1.2,2.69-2.69-1.21-2.69-2.69-2.69-2.69,1.2-2.69,2.69"/>
    </g>
  </g>
</svg>