<?xml version="1.0" encoding="UTF-8"?>
<svg id="_图层_2" data-name="图层 2" xmlns="http://www.w3.org/2000/svg" viewBox="0 0 56.69 42.71">
  <defs>
    <style>
      .cls-1 {
        fill: #00a0e9;
        stroke-width: 0px;
      }
    </style>
  </defs>
  <g id="_图层_1-2" data-name="图层 1">
    <g>
      <path class="cls-1" d="M49.57,28.47h-3.35c-.8,0-1.57-.32-2.14-.89l-6.04-6.04v-9.54c0-2.38-1.93-4.32-4.31-4.32s-4.32,1.93-4.32,4.32v.91L18.92,2.42c-1.3-1.29-3.05-2.02-4.88-2.02h-6.73C3.44.4.13,3.41,0,7.28c-.13,4.04,3.11,7.36,7.12,7.36h3.23c.8,0,1.57.32,2.14.89l22.83,22.83,2.33,2.33c1.29,1.29,3.05,2.02,4.88,2.02h6.84c3.87,0,7.17-3.01,7.31-6.88.14-4.04-3.11-7.37-7.12-7.37M49.44,39.47h-6.88c-1.15,0-2.24-.45-3.05-1.26l-3.54-3.54L13.97,12.67c-.81-.81-1.91-1.26-3.05-1.26h-3.79c-2.17,0-3.93-1.78-3.89-3.96.04-2.14,1.88-3.81,4.02-3.81h6.88c1.15,0,2.24.45,3.05,1.26l2.95,2.95,9.27,9.27,8.63,8.63,4.68,4.68c.81.81,1.91,1.26,3.05,1.26h3.79c2.17,0,3.93,1.78,3.89,3.96-.04,2.14-1.88,3.81-4.02,3.81"/>
      <path class="cls-1" d="M37.09,3.37c0,1.86-1.51,3.37-3.37,3.37s-3.37-1.51-3.37-3.37,1.51-3.37,3.37-3.37,3.37,1.51,3.37,3.37"/>
    </g>
  </g>
</svg>