<?xml version="1.0" encoding="UTF-8"?>
<svg id="_图层_2" data-name="图层 2" xmlns="http://www.w3.org/2000/svg" viewBox="0 0 56.69 56.69">
  <defs>
    <style>
      .cls-1 {
        fill: #00a0e9;
        stroke-width: 0px;
      }
    </style>
  </defs>
  <g id="_图层_1-2" data-name="图层 1">
    <g>
      <path class="cls-1" d="M48.77,54.98c-.14-.03-.28-.12-.39-.22-.12-.11-.22-.25-.3-.39-.49-.9-1-1.78-1.45-2.7-.51-1.05-1.01-2.11-1.43-3.2-.38-.99-.59-2.03-.44-3.1.1-.73.4-1.36.96-1.84.32-.27.34-.27.13-.64-1.06-1.85-2.38-3.5-4-4.89-.6-.52-1.25-.97-1.98-1.29-.28-.12-.35-.08-.39.21-.11.86-.22,1.72-.34,2.57-.19,1.28-.38,2.56-.59,3.84-.29,1.79-.58,3.58-.66,5.39-.1,2.22-.17,4.43-.25,6.65,0,.11.07.25.14.34.38.5.93.68,1.51.81.56.12,1.11.11,1.64-.13.27-.13.5-.29.52-.63.02-.33-.15-.54-.41-.71-.4-.26-.79-.53-1.19-.79-.15-.1-.19-.2-.15-.37.19-.91.34-1.83.58-2.73.35-1.34.77-2.66,1.15-3.99.14-.49.32-.54.69-.17.06.06.12.12.15.2.21.5.45.99.6,1.51.38,1.33.67,2.68,1.08,4,.29.94.68,1.85,1.06,2.76.23.53.68.86,1.24.96.67.12,1.35.18,2.03.27,0-.02,0-.04,0-.06.15,0,.3,0,.45,0,.63-.04.58.05.72-.62.14-.64-.05-.9-.68-1.03"/>
      <path class="cls-1" d="M56.25,33c-.24-.01-.43-.1-.6-.26-.3-.28-.65-.45-1.04-.6-.83-.32-1.57-.77-1.69-1.77-.05-.41-.31-.6-.69-.66-.27-.04-.44-.19-.52-.43-.12-.37-.37-.53-.74-.58-.46-.07-.75-.42-.76-.89,0-.17,0-.35,0-.52h.01c0-.21.02-.43,0-.64-.02-.11-.11-.22-.17-.32-.08.08-.18.15-.23.25-.31.51-.55,1.07-.91,1.52-.67.84-1.51,1.51-2.44,2.07-.55.33-1.13.64-1.6,1.06-.6.54-1.1,1.19-1.66,1.79-.29.31-.49.72-.92.87-.35.13-.72.23-1.09.32-.25.06-.46.16-.61.38-.19.27-.18.44.06.67.28.28.57.55.84.84,1.49,1.63,3.23,2.97,4.95,4.34.25.2.35.15.41-.16.06-.27.07-.56.14-.83.15-.58.32-1.16.49-1.73.04-.12.09-.25.17-.35.26-.32.54-.61.8-.93.36-.45.85-.72,1.4-.75,1.18-.06,2.37-.1,3.55-.06.73.02,1.43-.08,2.13-.23.53-.11.83-.45.95-.96.07-.29.13-.58.19-.87.08-.37-.04-.54-.42-.56"/>
      <path class="cls-1" d="M37.52,35.46c-.84.03-1.69-.04-2.51.11-1.88.34-3.77.62-5.67.8-1.18.11-2.36.2-3.54.31-.82.08-1.65.12-2.45.27-1.44.28-2.71.91-3.73,1.99-.65.69-1.12,1.48-1.52,2.33-.38.81-.72,1.65-1.29,2.36-.63.79-1.25,1.58-2.26,1.92-.18.06-.26.22-.2.4.1.27.2.55.37.77.54.71,2.2.87,2.87.28.55-.47.99-1.03,1.38-1.64.54-.84.82-1.79,1.15-2.72.38-1.09.76-2.18,1.36-3.17.11-.18.22-.3.46-.24.24.06.21.25.21.42-.02.96-.01,1.93-.08,2.89-.07.98-.3,1.93-.8,2.78-.53.9-1.07,1.8-1.64,2.68-.72,1.11-1.16,2.29-1.13,3.62.02,1.1.02,2.19.06,3.29,0,.27.09.55.17.82.05.19.2.34.41.36.93.09,1.85.17,2.78.23.12,0,.31-.12.36-.24.21-.43-.11-1.34-.71-1.28-.13.01-.26-.02-.39-.05-.31-.07-.36-.15-.36-.46,0-.67.01-1.33.03-2,.02-.68.06-1.35.09-2.02.01-.24.14-.41.35-.54.83-.52,1.65-1.05,2.47-1.58.25-.16.49-.32.77-.5-.01.11-.02.16-.02.21-.06.37-.15.73-.16,1.1-.03,1.9-.03,3.81-.04,5.71,0,.48.17.9.47,1.26.09.11.21.21.34.26.49.19,1,.25,1.53.18.3-.04.61-.03.91-.03.19,0,.32-.07.38-.25.07-.22.14-.44.2-.66.1-.36.08-.38-.24-.57-.49-.29-.98-.58-1.47-.86-.19-.11-.26-.25-.25-.47.04-1.45.35-2.84.87-4.19.38-.99.74-1.99,1.08-3,.21-.62.18-.64.82-.57,1.09.11,2.17.24,3.26.35.88.08,1.76.14,2.64.2.45.03.9.06,1.36.07.32.01.36-.03.4-.34.07-.59.14-1.18.21-1.77.16-1.37.31-2.73.47-4.1.17-1.46.35-2.93.53-4.39.02-.2-.04-.32-.26-.32"/>
      <path class="cls-1" d="M12.05,8.91c2.46,0,4.46-1.99,4.46-4.46S14.51,0,12.05,0s-4.46,2-4.46,4.46,1.99,4.46,4.46,4.46"/>
      <path class="cls-1" d="M15.89,41.77c.5-.69.57-1.1.93-1.86.41-.88.91-1.71,1.57-2.42.11-.11.22-.23.34-.33l-3.59-5.96-.05-3.42c0-.56.02-1.12.07-1.68l.29-3.04.91,1.5c.11.19.24.35.4.5l1.74,1.65,3.79,3.58h.01s.19.2.19.2c.43.35,1,.53,1.6.43.54-.08,1.01-.38,1.32-.8l12.67,4.17c.14.05.3.03.42-.05.27-.18.3-.58.05-.79-.06-.05-.11-.09-.14-.11-.62-.41-2.25-1.04-3.59-1.48l-9.02-2.97c-.01-.47-.19-.9-.47-1.23-.01-.01-.03-.04-.04-.05h-.01s-4.73-5.14-4.73-5.14c-.07-.08-.14-.17-.2-.27l-5.02-8.28v-.02c-.84-1.41-2.37-2.35-4.14-2.35-1.38,0-2.63.59-3.51,1.52l-5.28,5.18c-.38.38-.64.86-.73,1.38L.13,27.59c-.04.16-.06.34-.06.51,0,1.31,1.07,2.37,2.39,2.37,1.14,0,2.09-.78,2.33-1.83l.04-.18v-.02l1.51-7.36c.04-.23.19-.43.39-.55l.49-.29-.65,5.81c-.04.34-.06.68-.04,1.01l.15,4.57-1.54,7.85c-.04.2-.11.39-.21.56L.35,47.98c-.22.35-.35.76-.35,1.2,0,1.23,1.01,2.24,2.25,2.24.78,0,1.47-.39,1.87-.99l.14-.23s.02-.03.02-.04l5.27-8.94c.05-.09.09-.18.13-.28l1.56-4.44c.04-.1.17-.12.23-.04l2.62,2.82c.53.57,1.01,1.2,1.42,1.86l.39.64Z"/>
    </g>
  </g>
</svg>