<?xml version="1.0" encoding="UTF-8"?>
<svg id="_图层_2" data-name="图层 2" xmlns="http://www.w3.org/2000/svg" viewBox="0 0 25.51 41.1">
  <defs>
    <style>
      .cls-1 {
        fill: #fff;
        stroke-width: 0px;
      }
    </style>
  </defs>
  <g id="_图层_1-2" data-name="图层 1">
    <g>
      <path class="cls-1" d="M13.72,30.71h-2.54c-1.03,0-1.87-.84-1.87-1.87,0-2.3.33-4.19,1-5.68.67-1.48,2-3.15,4.01-5.01,2-1.86,3.2-3.07,3.59-3.65.89-1.34,1.12-2.88.7-4.62-.03-.13-.08-.27-.14-.4-1.06-2.35-2.92-3.53-5.58-3.53-1.74,0-3.2.57-4.37,1.7-.89.86-1.56,2.05-2.03,3.59-.27.9-1.14,1.49-2.07,1.35l-2.81-.4c-1.03-.15-1.78-1.11-1.59-2.14.48-2.52,1.64-4.71,3.5-6.58C5.84,1.16,8.86,0,12.61,0c3.94,0,7.08,1.17,9.41,3.52,2.33,2.35,3.49,5.08,3.49,8.2,0,1.73-.43,3.36-1.28,4.9-.86,1.54-2.68,3.64-5.49,6.29-1.45,1.37-2.35,2.48-2.7,3.31-.24.58-.39,1.48-.45,2.7-.05.99-.87,1.78-1.87,1.78"/>
      <path class="cls-1" d="M9.45,39.23v-3.38c0-1.03.84-1.87,1.88-1.87h2.36c1.04,0,1.88.84,1.88,1.87v3.38c0,1.04-.84,1.87-1.88,1.87h-2.36c-1.04,0-1.88-.84-1.88-1.87"/>
    </g>
  </g>
</svg>