<?xml version="1.0" encoding="UTF-8"?>
<svg id="_图层_2" data-name="图层 2" xmlns="http://www.w3.org/2000/svg" viewBox="0 0 12.32 39.68">
  <defs>
    <style>
      .cls-1 {
        fill: #fff;
        stroke-width: 0px;
      }
    </style>
  </defs>
  <g id="_图层_1-2" data-name="图层 1">
    <g>
      <path class="cls-1" d="M12.29,19.02c-.24-2.76-2.01-4.75-4.04-5.09-.55-.09-.96-.55-.99-1.08l-.19-2.42c-.48-3.84-6.29-3.59-6.43.27l-.63,17.44h2.7v9.66c0,1.04.86,1.88,1.91,1.88s1.91-.84,1.91-1.88v-9.66h2.78l-.28-2.18c-.06-.49.19-.98.65-1.2,1.73-.85,2.84-3.14,2.62-5.74M9.35,19.17c-.35.67-1.06,1.08-1.82,1.08-.33,0-.67-.08-.97-.24l-2.94-1.53-1.31-.69c-.75-.39-1.22-1.18-1.17-2.02l.07-1.46.18-3.78c.05-1.08.95-1.94,2.06-1.94.03,0,.06,0,.09,0,.55.02,1.06.26,1.43.66.37.41.56.92.53,1.47l-.2,4.03,3.17,1.66c.48.25.85.68,1.01,1.2.16.52.11,1.07-.16,1.55"/>
      <path class="cls-1" d="M8.82,17.82c-.11-.34-.34-.62-.66-.79l-3.34-1.74c-.14-.07-.23-.22-.22-.38l.21-4.21v-.07c0-.71-.57-1.3-1.29-1.34h-.06c-.72,0-1.32.56-1.36,1.27l-.18,3.78-.07,1.45c-.03.57.28,1.11.79,1.38l1.31.68,2.94,1.53c.2.1.42.16.64.16.29,0,.54-.1.92-.36l.03-.02.02-.02c.09-.09.17-.2.23-.31.16-.31.2-.67.09-1.01"/>
      <path class="cls-1" d="M3.82,6.48c1.79,0,3.24-1.45,3.24-3.24S5.61,0,3.82,0,.59,1.45.59,3.24s1.45,3.24,3.24,3.24"/>
    </g>
  </g>
</svg>