<?xml version="1.0" encoding="UTF-8"?>
<svg id="_图层_2" data-name="图层 2" xmlns="http://www.w3.org/2000/svg" viewBox="0 0 45.35 39.69">
  <defs>
    <style>
      .cls-1 {
        fill: #fff;
        stroke-width: 0px;
      }
    </style>
  </defs>
  <g id="_图层_1-2" data-name="图层 1">
    <g>
      <path class="cls-1" d="M37.19,2.11c0-1.17-.94-2.11-2.1-2.11H10.26c-1.16,0-2.1.95-2.1,2.11v25.79h29.03V2.11ZM32.97,25.8H12.22V5.69h20.74v20.11Z"/>
      <rect class="cls-1" x="13.48" y="23.37" width="18.38" height="1.31"/>
      <path class="cls-1" d="M26.73,11.79h-.72v-1.17c0-.63-.51-1.14-1.13-1.14h-4.42c-.62,0-1.13.51-1.13,1.14v1.17h-.72v10.71h8.12v-10.71ZM25.05,11.79h-4.76v-1.17c0-.09.08-.17.17-.17h4.42c.09,0,.17.08.17.17v1.17Z"/>
      <path class="cls-1" d="M15.95,22.5h1.84v-10.71h-1.84c-.9,0-1.62.73-1.62,1.63v7.45c0,.9.73,1.63,1.62,1.63"/>
      <path class="cls-1" d="M31.03,20.87v-7.45c0-.9-.73-1.63-1.62-1.63h-1.84v10.71h1.84c.9,0,1.62-.73,1.62-1.63"/>
      <polygon class="cls-1" points="42.24 35.44 3.12 35.44 0 39.69 19.73 39.69 25.62 39.69 45.35 39.69 42.24 35.44"/>
      <polygon class="cls-1" points="38.7 30.62 6.66 30.62 4.66 33.33 40.69 33.33 38.7 30.62"/>
    </g>
  </g>
</svg>