<?xml version="1.0" encoding="UTF-8"?>
<svg id="_图层_2" data-name="图层 2" xmlns="http://www.w3.org/2000/svg" viewBox="0 0 56.69 56.69">
  <defs>
    <style>
      .cls-1 {
        fill: #fff;
        stroke-width: 0px;
      }
    </style>
  </defs>
  <g id="_图层_1-2" data-name="图层 1">
    <g>
      <path class="cls-1" d="M50.32,1.5c2.69,0,4.88,2.19,4.88,4.88v43.94c0,2.69-2.19,4.88-4.88,4.88H6.38c-2.69,0-4.88-2.19-4.88-4.88V6.38C1.5,3.69,3.69,1.5,6.38,1.5h43.94ZM50.32,0H6.38C2.86,0,0,2.85,0,6.38v43.94c0,3.52,2.86,6.38,6.38,6.38h43.94c3.52,0,6.38-2.86,6.38-6.38V6.38c0-3.52-2.86-6.38-6.38-6.38"/>
      <g>
        <path class="cls-1" d="M36.59,21.22l-14.55,19.54h14.59v1.92h-16.64v-2.37l.91-1.22,13.3-17.87h-17.3c-.54,0-.99.44-.99.99v23.32c0,1.23,1,2.23,2.22,2.23h.61v1.24c0,.34.28.62.61.62h17.96c.34,0,.61-.28.61-.62v-1.24h.61c1.23,0,2.22-1,2.22-2.23v-23.32c0-.54-.44-.99-.99-.99h-3.2Z"/>
        <polygon class="cls-1" points="22.76 10.62 26.37 10.62 29.93 10.62 33.54 10.62 34.24 10.62 37.77 7.09 33.54 7.09 29.93 7.09 26.37 7.09 22.76 7.09 19.15 7.09 22.68 10.62 22.76 10.62"/>
        <path class="cls-1" d="M22.83,12.46h-.15l-2.69,2.69h2.64c.44,2.79,2.85,4.91,5.76,4.91s5.33-2.13,5.76-4.91c.05-.29.07-.59.08-.89v-1.79h-11.41Z"/>
      </g>
    </g>
  </g>
</svg>