<?xml version="1.0" encoding="UTF-8"?>
<svg id="_图层_2" data-name="图层 2" xmlns="http://www.w3.org/2000/svg" viewBox="0 0 56.69 56.69">
  <defs>
    <style>
      .cls-1 {
        fill: #fff;
        stroke-width: 0px;
      }
    </style>
  </defs>
  <g id="_图层_1-2" data-name="图层 1">
    <g>
      <path class="cls-1" d="M50.32,1.5c2.69,0,4.88,2.19,4.88,4.88v43.94c0,2.69-2.19,4.88-4.88,4.88H6.38c-2.69,0-4.88-2.19-4.88-4.88V6.38C1.5,3.69,3.69,1.5,6.38,1.5h43.94ZM50.32,0H6.38C2.86,0,0,2.86,0,6.38v43.94c0,3.52,2.86,6.38,6.38,6.38h43.94c3.52,0,6.38-2.86,6.38-6.38V6.38c0-3.52-2.86-6.38-6.38-6.38"/>
      <g>
        <path class="cls-1" d="M42.86,10.62c0-1.17-.94-2.11-2.1-2.11H15.93c-1.16,0-2.1.95-2.1,2.11v25.79h29.03V10.62ZM38.64,34.3h-20.74V14.2h20.74v20.11Z"/>
        <rect class="cls-1" x="19.15" y="31.87" width="18.38" height="1.31"/>
        <path class="cls-1" d="M32.4,20.29h-.72v-1.17c0-.63-.51-1.14-1.13-1.14h-4.42c-.62,0-1.13.51-1.13,1.14v1.17h-.72v10.71h8.12v-10.71ZM30.72,20.29h-4.76v-1.17c0-.09.08-.17.17-.17h4.42c.09,0,.17.08.17.17v1.17Z"/>
        <path class="cls-1" d="M21.62,31.01h1.84v-10.71h-1.84c-.9,0-1.62.73-1.62,1.63v7.45c0,.9.73,1.63,1.62,1.63"/>
        <path class="cls-1" d="M36.7,29.37v-7.45c0-.9-.73-1.63-1.62-1.63h-1.84v10.71h1.84c.9,0,1.62-.73,1.62-1.63"/>
        <polygon class="cls-1" points="47.91 43.95 8.79 43.95 5.67 48.19 25.4 48.19 31.29 48.19 51.02 48.19 47.91 43.95"/>
        <polygon class="cls-1" points="44.37 39.13 12.33 39.13 10.33 41.84 46.36 41.84 44.37 39.13"/>
      </g>
    </g>
  </g>
</svg>