<?xml version="1.0" encoding="UTF-8"?>
<svg id="_图层_2" data-name="图层 2" xmlns="http://www.w3.org/2000/svg" viewBox="0 0 24.86 42.52">
  <defs>
    <style>
      .cls-1 {
        fill: #fff;
        stroke-width: 0px;
      }
    </style>
  </defs>
  <g id="_图层_1-2" data-name="图层 1">
    <g>
      <path class="cls-1" d="M20.67,14.14l-14.55,19.54h14.59v1.92H4.08v-2.37l.91-1.22,13.3-17.87H.99c-.54,0-.99.44-.99.99v23.32c0,1.23,1,2.23,2.22,2.23h.61v1.24c0,.34.28.62.61.62h17.96c.34,0,.61-.28.61-.62v-1.24h.61c1.23,0,2.22-1,2.22-2.23V15.12c0-.54-.44-.99-.99-.99h-3.2Z"/>
      <polygon class="cls-1" points="6.84 3.53 10.46 3.53 14.02 3.53 17.63 3.53 18.32 3.53 21.85 0 17.63 0 14.02 0 10.46 0 6.84 0 3.23 0 6.76 3.53 6.84 3.53"/>
      <path class="cls-1" d="M6.92,5.37h-.15l-2.69,2.69h2.64c.44,2.79,2.85,4.91,5.76,4.91s5.33-2.13,5.76-4.91c.05-.29.07-.59.08-.89v-1.79H6.92Z"/>
    </g>
  </g>
</svg>