<?xml version="1.0" encoding="UTF-8"?>
<svg id="_图层_2" data-name="图层 2" xmlns="http://www.w3.org/2000/svg" viewBox="0 0 56.69 56.69">
  <defs>
    <style>
      .cls-1 {
        fill: #fff;
        stroke-width: 0px;
      }
    </style>
  </defs>
  <g id="_图层_1-2" data-name="图层 1">
    <g>
      <path class="cls-1" d="M50.32,1.5c2.69,0,4.88,2.19,4.88,4.88v43.94c0,2.69-2.19,4.88-4.88,4.88H6.38c-2.69,0-4.88-2.19-4.88-4.88V6.38C1.5,3.69,3.69,1.5,6.38,1.5h43.94ZM50.32,0H6.38C2.86,0,0,2.86,0,6.38v43.94c0,3.52,2.86,6.38,6.38,6.38h43.94c3.52,0,6.38-2.86,6.38-6.38V6.38c0-3.52-2.86-6.38-6.38-6.38"/>
      <g>
        <path class="cls-1" d="M30.77,16.8c0-1.39-1.12-2.51-2.51-2.51s-2.51,1.12-2.51,2.51,1.12,2.51,2.51,2.51,2.51-1.12,2.51-2.51"/>
        <path class="cls-1" d="M30.85,19.94h-5.19c-1.8,0-3.27,1.46-3.27,3.27v11.27c0,.29.12.56.31.76.2.19.46.31.76.31.58,0,1.06-.48,1.06-1.07v-10.33c0-.1.09-.19.19-.19.11,0,.19.09.19.19v23.97c0,.41.17.78.44,1.05.26.27.63.43,1.04.43.82,0,1.48-.66,1.48-1.48v-13.38c0-.22.18-.39.39-.39s.39.17.39.39v13.38c0,.41.17.78.44,1.05.27.27.63.43,1.05.43.81,0,1.48-.66,1.48-1.48v-23.97c0-.1.08-.19.18-.19h0c.1,0,.19.09.19.19v10.33c0,.59.47,1.07,1.06,1.07s1.07-.48,1.07-1.07v-11.27c0-1.81-1.47-3.27-3.27-3.27"/>
        <polygon class="cls-1" points="47.35 45.83 43.26 45.83 43.26 7.08 13.43 7.08 13.43 45.83 9.35 45.83 9.21 45.83 9.21 49.6 9.35 49.6 17.52 49.6 17.52 45.83 17.52 11.6 39.17 11.6 39.17 45.83 39.17 49.6 47.35 49.6 47.48 49.6 47.48 45.83 47.35 45.83"/>
      </g>
    </g>
  </g>
</svg>