<?xml version="1.0" encoding="UTF-8"?>
<svg id="_图层_2" data-name="图层 2" xmlns="http://www.w3.org/2000/svg" viewBox="0 0 38.27 42.52">
  <defs>
    <style>
      .cls-1 {
        fill: #fff;
        stroke-width: 0px;
      }
    </style>
  </defs>
  <g id="_图层_1-2" data-name="图层 1">
    <g>
      <path class="cls-1" d="M21.56,9.72c0-1.39-1.12-2.51-2.51-2.51s-2.51,1.12-2.51,2.51,1.12,2.51,2.51,2.51,2.51-1.12,2.51-2.51"/>
      <path class="cls-1" d="M21.64,12.86h-5.19c-1.8,0-3.27,1.46-3.27,3.27v11.27c0,.29.12.56.31.76.2.19.46.31.76.31.58,0,1.06-.48,1.06-1.07v-10.33c0-.1.09-.19.19-.19.11,0,.19.09.19.19v23.97c0,.41.17.78.44,1.05.26.27.63.43,1.04.43.82,0,1.48-.66,1.48-1.48v-13.38c0-.22.18-.39.39-.39s.39.17.39.39v13.38c0,.41.17.78.44,1.05.27.27.63.43,1.05.43.81,0,1.48-.66,1.48-1.48v-23.97c0-.1.08-.19.18-.19h0c.1,0,.19.09.19.19v10.33c0,.59.47,1.07,1.06,1.07s1.07-.48,1.07-1.07v-11.27c0-1.81-1.47-3.27-3.27-3.27"/>
      <polygon class="cls-1" points="38.14 38.75 34.05 38.75 34.05 0 4.22 0 4.22 38.75 .14 38.75 0 38.75 0 42.52 .14 42.52 8.31 42.52 8.31 38.75 8.31 4.52 29.96 4.52 29.96 38.75 29.96 42.52 38.14 42.52 38.27 42.52 38.27 38.75 38.14 38.75"/>
    </g>
  </g>
</svg>