<?xml version="1.0" encoding="UTF-8"?>
<svg id="_图层_2" data-name="图层 2" xmlns="http://www.w3.org/2000/svg" viewBox="0 0 45.35 42.52">
  <defs>
    <style>
      .cls-1 {
        fill: #fff;
        stroke-width: 0px;
      }
    </style>
  </defs>
  <g id="_图层_1-2" data-name="图层 1">
    <g>
      <path class="cls-1" d="M33.92,2.84c0,1.57-1.27,2.84-2.84,2.84s-2.83-1.27-2.83-2.84,1.27-2.84,2.83-2.84,2.84,1.27,2.84,2.84"/>
      <path class="cls-1" d="M37.63,10.28v12.99c0,.68-.53,1.23-1.19,1.23h0c-.66,0-1.19-.55-1.19-1.23v-11.9c0-.12-.09-.22-.21-.22h0c-.12,0-.21.1-.21.22v29.44c0,.94-.74,1.71-1.65,1.71-.46,0-.87-.19-1.17-.5-.3-.31-.48-.74-.48-1.21v-17.24c0-.25-.19-.45-.43-.45s-.43.2-.43.45v17.24c0,.94-.74,1.71-1.65,1.71-.46,0-.87-.19-1.17-.5-.3-.31-.48-.74-.48-1.21V11.37c0-.12-.09-.22-.21-.22s-.21.1-.21.22v11.9c0,.68-.53,1.23-1.19,1.23-.33,0-.63-.14-.84-.36-.21-.23-.35-.53-.35-.87v-12.99c0-2.08,1.63-3.77,3.64-3.77h5.79c2.01,0,3.64,1.69,3.64,3.77"/>
      <path class="cls-1" d="M13.95,2.9c0,1.6-1.27,2.9-2.84,2.9s-2.83-1.3-2.83-2.9S9.55,0,11.12,0s2.84,1.3,2.84,2.9"/>
      <path class="cls-1" d="M17.65,10.28v7.31h-2.37v-6.22c0-.12-.09-.22-.21-.22s-.21.1-.21.22v6.22h-7.47v-6.22c0-.12-.1-.22-.21-.22s-.21.1-.21.22v6.22h-2.37v-7.31c0-2.08,1.63-3.77,3.65-3.77h5.79c2.01,0,3.64,1.69,3.64,3.77"/>
      <rect class="cls-1" y="19.48" width="22.64" height="3.04"/>
      <rect class="cls-1" x="39.54" y="19.48" width="5.82" height="3.04"/>
    </g>
  </g>
</svg>