<?xml version="1.0" encoding="UTF-8"?>
<svg id="_图层_2" data-name="图层 2" xmlns="http://www.w3.org/2000/svg" viewBox="0 0 45.35 37.8">
  <defs>
    <style>
      .cls-1 {
        fill: #fff;
        stroke-width: 0px;
      }
    </style>
  </defs>
  <g id="_图层_1-2" data-name="图层 1">
    <g>
      <polygon class="cls-1" points="0 34.64 0 37.8 9.71 37.8 9.71 34.64 16.84 34.64 16.84 31.48 23.97 31.48 23.97 28.33 31.1 28.33 31.1 25.17 38.23 25.17 38.23 22.02 45.35 22.02 45.35 18.86 35.64 18.86 35.64 22.02 28.51 22.02 28.51 25.17 21.39 25.17 21.39 28.33 14.26 28.33 14.26 31.48 7.13 31.48 7.13 34.64 0 34.64"/>
      <path class="cls-1" d="M24.11,2.05c0,1.13.92,2.05,2.05,2.05s2.05-.92,2.05-2.05-.92-2.05-2.05-2.05-2.05.92-2.05,2.05"/>
      <path class="cls-1" d="M23.84,7.06v6.31c0,.18.04.35.12.51l.82,1.66c.05.11.08.23.08.35v7.21c0,.68.5,1.28,1.17,1.35.77.07,1.42-.53,1.42-1.29v-6.75c0-.16.17-.27.32-.2l1.77.88c.21.11.35.32.35.56v2.35c0,.62.46,1.18,1.08,1.24.71.07,1.31-.49,1.31-1.19v-3.81c0-.28-.16-.53-.4-.65l-1.99-.99-1.09-.54c-.2-.1-.32-.3-.32-.52v-2.49c0-.13.14-.21.25-.15l2.06,1.14.04.03c.17.09.38.12.6.07.3-.07.55-.32.62-.63.1-.4-.1-.78-.42-.95l-2.85-1.58c-.18-.1-.3-.3-.3-.51v-1.41c0-1.28-1.04-2.32-2.32-2.32s-2.32,1.04-2.32,2.32"/>
      <path class="cls-1" d="M7.66,19.63c.05.42.39.77.81.83.33.04.64-.09.83-.31.02-.01.03-.03.04-.05l1.43-1.72c.07-.08.19-.03.19.07v11.27c0,.6.44,1.13,1.03,1.18.68.06,1.25-.47,1.25-1.14v-4.22c0-.15.17-.23.28-.14l2.29,1.84s.01,0,.01,0c.19.15.44.23.71.2.42-.05.77-.4.81-.83.04-.33-.1-.63-.32-.83-.01-.01-.03-.03-.05-.04l-3.48-2.81c-.14-.11-.16-.31-.05-.45l1.69-2.21c.09-.12.14-.27.14-.43v-6.57c0-.18-.02-.36-.07-.53-.24-.93-1.08-1.63-2.09-1.63s-1.86.7-2.09,1.63c-.04.17-.07.35-.07.53v1.66c0,.15-.05.3-.15.41l-2.94,3.54s0,0,0,.01c-.15.19-.24.44-.21.71"/>
      <path class="cls-1" d="M11.07,8.63c0,1.13.92,2.05,2.05,2.05s2.05-.92,2.05-2.05-.92-2.05-2.05-2.05-2.05.92-2.05,2.05"/>
    </g>
  </g>
</svg>