<?xml version="1.0" encoding="UTF-8"?>
<svg id="_图层_2" data-name="图层 2" xmlns="http://www.w3.org/2000/svg" viewBox="0 0 56.69 47.25">
  <defs>
    <style>
      .cls-1 {
        fill: #00a0e9;
        stroke-width: 0px;
      }
    </style>
  </defs>
  <g id="_图层_1-2" data-name="图层 1">
    <g>
      <polygon class="cls-1" points="56.69 43.3 56.69 47.25 44.55 47.25 44.55 43.3 35.64 43.3 35.64 39.35 26.73 39.35 26.73 35.41 17.82 35.41 17.82 31.46 8.91 31.46 8.91 27.52 0 27.52 0 23.57 12.14 23.57 12.14 27.52 21.05 27.52 21.05 31.46 29.96 31.46 29.96 35.41 38.87 35.41 38.87 39.35 47.78 39.35 47.78 43.3 56.69 43.3"/>
      <path class="cls-1" d="M26.56,2.56c0,1.41-1.15,2.56-2.56,2.56s-2.56-1.15-2.56-2.56,1.15-2.56,2.56-2.56,2.56,1.15,2.56,2.56"/>
      <path class="cls-1" d="M26.9,8.83v7.89c0,.22-.05.44-.15.64l-1.03,2.07c-.07.14-.1.29-.1.44v9.01c0,.85-.62,1.61-1.46,1.68-.97.09-1.78-.67-1.78-1.61v-8.44c0-.21-.22-.34-.4-.25l-2.21,1.1c-.26.13-.43.4-.43.7v2.94c0,.78-.57,1.48-1.35,1.55-.89.08-1.64-.61-1.64-1.49v-4.77c0-.35.19-.66.5-.81l2.48-1.23,1.36-.68c.25-.12.4-.38.4-.65v-3.11c0-.16-.17-.26-.32-.19l-2.58,1.43-.05.03c-.22.11-.48.15-.75.09-.38-.09-.69-.4-.78-.78-.12-.51.13-.97.53-1.19l3.56-1.98c.23-.13.38-.37.38-.64v-1.76c0-1.61,1.3-2.9,2.9-2.9s2.9,1.3,2.9,2.9"/>
      <path class="cls-1" d="M47.12,24.54c-.06.53-.49.96-1.02,1.03-.41.05-.79-.11-1.04-.39-.02-.02-.04-.04-.05-.06l-1.78-2.15c-.08-.1-.24-.04-.24.09v14.08c0,.75-.55,1.41-1.29,1.48-.85.08-1.57-.59-1.57-1.42v-5.28c0-.18-.21-.28-.35-.17l-2.86,2.3s-.01,0-.02.01c-.24.19-.55.29-.89.25-.53-.07-.96-.5-1.02-1.03-.04-.42.12-.79.4-1.04.02-.02.04-.04.06-.05l4.35-3.51c.17-.14.2-.38.07-.56l-2.11-2.76c-.12-.15-.18-.34-.18-.54v-8.21c0-.23.03-.45.08-.66.3-1.17,1.36-2.04,2.62-2.04s2.32.87,2.62,2.04c.05.21.08.43.08.66v2.07c0,.19.07.37.19.51l3.68,4.43s0,.01.01.02c.19.23.29.55.26.88"/>
      <path class="cls-1" d="M42.85,10.79c0,1.41-1.15,2.56-2.56,2.56s-2.56-1.15-2.56-2.56,1.15-2.56,2.56-2.56,2.56,1.15,2.56,2.56"/>
    </g>
  </g>
</svg>