<?xml version="1.0" encoding="UTF-8"?>
<svg id="_图层_2" data-name="图层 2" xmlns="http://www.w3.org/2000/svg" viewBox="0 0 56.69 56.69">
  <defs>
    <style>
      .cls-1 {
        fill: #fff;
        stroke-width: 0px;
      }
    </style>
  </defs>
  <g id="_图层_1-2" data-name="图层 1">
    <g>
      <g>
        <polygon class="cls-1" points="5.67 44.09 5.67 47.25 15.38 47.25 15.38 44.09 22.51 44.09 22.51 40.93 29.64 40.93 29.64 37.78 36.77 37.78 36.77 34.62 43.9 34.62 43.9 31.46 51.02 31.46 51.02 28.31 41.31 28.31 41.31 31.46 34.18 31.46 34.18 34.62 27.06 34.62 27.06 37.78 19.93 37.78 19.93 40.93 12.8 40.93 12.8 44.09 5.67 44.09"/>
        <path class="cls-1" d="M29.78,11.5c0,1.13.92,2.05,2.05,2.05s2.05-.92,2.05-2.05-.92-2.05-2.05-2.05-2.05.92-2.05,2.05"/>
        <path class="cls-1" d="M29.51,16.51v6.31c0,.18.04.35.12.51l.82,1.66c.05.11.08.23.08.35v7.21c0,.68.5,1.28,1.17,1.35.77.07,1.42-.53,1.42-1.29v-6.75c0-.16.17-.27.32-.2l1.77.88c.21.11.35.32.35.56v2.35c0,.62.46,1.18,1.08,1.24.71.07,1.31-.49,1.31-1.19v-3.81c0-.28-.16-.53-.4-.65l-1.99-.99-1.09-.54c-.2-.1-.32-.3-.32-.52v-2.49c0-.13.14-.21.25-.15l2.06,1.14.04.03c.17.09.38.12.6.07.3-.07.55-.32.62-.63.1-.4-.1-.78-.42-.95l-2.85-1.58c-.18-.1-.3-.3-.3-.51v-1.41c0-1.28-1.04-2.32-2.32-2.32s-2.32,1.04-2.32,2.32"/>
        <path class="cls-1" d="M13.33,29.08c.05.42.39.77.81.83.33.04.64-.09.83-.31.02-.01.03-.03.04-.05l1.43-1.72c.07-.08.19-.03.19.07v11.27c0,.6.44,1.13,1.03,1.18.68.06,1.25-.47,1.25-1.14v-4.22c0-.15.17-.23.28-.14l2.29,1.84s.01,0,.01,0c.19.15.44.23.71.2.42-.05.77-.4.81-.83.04-.33-.1-.63-.32-.83-.01-.01-.03-.03-.05-.04l-3.48-2.81c-.14-.11-.16-.31-.05-.45l1.69-2.21c.09-.12.14-.27.14-.43v-6.57c0-.18-.02-.36-.07-.53-.24-.93-1.08-1.63-2.09-1.63s-1.86.7-2.09,1.63c-.04.17-.07.35-.07.53v1.66c0,.15-.05.3-.15.41l-2.94,3.54s0,0,0,.01c-.15.19-.24.44-.21.71"/>
        <path class="cls-1" d="M16.74,18.08c0,1.13.92,2.05,2.05,2.05s2.05-.92,2.05-2.05-.92-2.05-2.05-2.05-2.05.92-2.05,2.05"/>
      </g>
      <path class="cls-1" d="M50.32,1.5c2.69,0,4.88,2.19,4.88,4.88v43.94c0,2.69-2.19,4.88-4.88,4.88H6.38c-2.69,0-4.88-2.19-4.88-4.88V6.38C1.5,3.69,3.69,1.5,6.38,1.5h43.94ZM50.32,0H6.38C2.86,0,0,2.85,0,6.38v43.94c0,3.52,2.86,6.38,6.38,6.38h43.94c3.52,0,6.38-2.86,6.38-6.38V6.38c0-3.52-2.86-6.38-6.38-6.38"/>
    </g>
  </g>
</svg>