<?xml version="1.0" encoding="UTF-8"?>
<svg id="_图层_2" data-name="图层 2" xmlns="http://www.w3.org/2000/svg" viewBox="0 0 56.69 56.69">
  <defs>
    <style>
      .cls-1 {
        fill: #fff;
        stroke-width: 0px;
      }
    </style>
  </defs>
  <g id="_图层_1-2" data-name="图层 1">
    <g>
      <g>
        <path class="cls-1" d="M45.47,15.31l-4.7,3.17-6.87-4.31-6.16,10.15-8.52-5.04c-.48-.29-1.06-.32-1.56-.07l-13.69,6.85c-.26.13-.42.39-.42.68v13.58c0,.37.2.68.56.72,1.62.16,4.16.18,7.13-.88,2.08-.75,3.67-1.8,4.81-2.71.89-.72,2-1.09,3.14-1.09h3.17l-.49.86c-.66,1.16-.29,2.62.84,3.29.74.44,1.61.42,2.31.04.09.53.4,1.01.9,1.31.89.53,2.03.22,2.55-.68l.63-1.1,3.92,2.45,1.93-3.18,18.2-12.26-7.68-11.77ZM16.69,30.36c.73-1.15,1.76-1.86,2.9-1.86,1.01,0,1.93.56,2.63,1.48l-5.53.38ZM32.36,40.24l-4.96-3.11-2.97-1.87h4.36c1.7,0,3.05-1.38,3.05-3.1s-1.36-3.09-3.05-3.09h-1.8l7.51-12.35,8.8,5.52-10.94,18.01ZM43.18,25.81c-.04.24.03.49.18.71.32.44.94.53,1.37.2l.55-.41c.26-.19.4-.49.4-.8,0-.21-.06-.42-.2-.59-.32-.45-.93-.54-1.37-.21l-.48.38,2.12-3.49-3.41-2.14,2.51-1.69,5.68,8.69-13.08,8.8,5.75-9.45Z"/>
        <path class="cls-1" d="M33.47,21.55h0c-.47-.29-.62-.9-.33-1.37l.37-.59c.29-.47.91-.61,1.39-.33s.62.9.33,1.37l-.37.59c-.29.47-.91.62-1.39.33"/>
        <path class="cls-1" d="M35.46,22.86h0c-.47-.29-.62-.9-.33-1.37l.37-.59c.29-.47.91-.62,1.39-.33s.62.9.33,1.37l-.37.59c-.29.47-.91.62-1.39.33"/>
        <path class="cls-1" d="M37.46,24.18h0c-.47-.29-.62-.9-.33-1.37l.37-.59c.29-.47.91-.62,1.39-.33s.62.9.33,1.37l-.37.59c-.29.47-.91.62-1.39.33"/>
        <path class="cls-1" d="M39.46,25.5h0c-.47-.29-.62-.9-.33-1.37l.37-.59c.29-.47.91-.62,1.39-.33s.62.9.33,1.37l-.37.59c-.29.47-.91.62-1.39.33"/>
        <path class="cls-1" d="M45.63,27.4h0c-.33-.44-.24-1.07.21-1.4l.56-.41c.45-.33,1.08-.24,1.41.2.33.44.24,1.07-.21,1.4l-.56.41c-.45.33-1.08.24-1.41-.2"/>
      </g>
      <path class="cls-1" d="M50.32,1.5c2.69,0,4.88,2.19,4.88,4.88v43.94c0,2.69-2.19,4.88-4.88,4.88H6.38c-2.69,0-4.88-2.19-4.88-4.88V6.38C1.5,3.69,3.69,1.5,6.38,1.5h43.94ZM50.32,0H6.38C2.86,0,0,2.85,0,6.38v43.94c0,3.52,2.86,6.38,6.38,6.38h43.94c3.52,0,6.38-2.86,6.38-6.38V6.38c0-3.52-2.86-6.38-6.38-6.38"/>
    </g>
  </g>
</svg>