<?xml version="1.0" encoding="UTF-8"?>
<svg id="_图层_2" data-name="图层 2" xmlns="http://www.w3.org/2000/svg" viewBox="0 0 56.69 56.69">
  <defs>
    <style>
      .cls-1 {
        fill: #fff;
        stroke-width: 0px;
      }
    </style>
  </defs>
  <g id="_图层_1-2" data-name="图层 1">
    <g>
      <g>
        <path class="cls-1" d="M44.72,28.57l1.3,1.3-1.68,1.68-2.73-2.73c4.62-1.34,7.99-5.6,7.99-10.65,0-6.12-4.96-11.09-11.09-11.09-5.05,0-9.31,3.38-10.65,7.99l-2.73-2.73,1.68-1.68,1.3,1.3c.34-.57.72-1.1,1.15-1.61l-2.37-2.37-1.38,1.38-3.05,3.05,21.8,21.8,3.05-3.06,1.38-1.38-2.37-2.37c-.5.43-1.04.81-1.61,1.15M39.84,24.37h-2.77v-2.5h-3.17v-1.82h3.17v-1.37h-3.17v-1.8h2.55l-3.4-5.98h2.96c1.34,2.77,2.18,4.6,2.54,5.48h.06c.05-.13.1-.29.17-.48.1-.31.52-1.21,1.25-2.71l1.09-2.29h2.8l-3.5,5.98h2.48v1.8h-3.06v1.37h3.06v1.82h-3.06v2.5Z"/>
        <polygon class="cls-1" points="34.02 27.16 34.02 34.96 29.26 34.96 29.26 32.9 31.9 32.9 31.9 29.21 9.2 29.21 9.2 32.9 11.85 32.9 11.85 34.96 7.09 34.96 7.09 27.16 34.02 27.16"/>
        <polygon class="cls-1" points="28.46 30.34 28.46 49.61 12.65 49.61 12.65 30.34 14.21 30.34 14.21 48.24 26.9 48.24 26.9 30.34 28.46 30.34"/>
        <path class="cls-1" d="M17.48,43.65c0,.43-.35.77-.77.77s-.77-.35-.77-.77.35-.77.77-.77.77.35.77.77"/>
        <path class="cls-1" d="M20.04,43.65c0,.43-.35.77-.77.77s-.77-.35-.77-.77.35-.77.77-.77.77.35.77.77"/>
        <path class="cls-1" d="M22.61,43.65c0,.43-.35.77-.77.77s-.77-.35-.77-.77.35-.77.77-.77.77.35.77.77"/>
        <path class="cls-1" d="M25.17,43.65c0,.43-.35.77-.77.77s-.77-.35-.77-.77.35-.77.77-.77.77.35.77.77"/>
      </g>
      <path class="cls-1" d="M50.32,1.5c2.69,0,4.88,2.19,4.88,4.88v43.94c0,2.69-2.19,4.88-4.88,4.88H6.38c-2.69,0-4.88-2.19-4.88-4.88V6.38C1.5,3.69,3.69,1.5,6.38,1.5h43.94ZM50.32,0H6.38C2.86,0,0,2.85,0,6.38v43.94c0,3.52,2.86,6.38,6.38,6.38h43.94c3.52,0,6.38-2.86,6.38-6.38V6.38c0-3.52-2.86-6.38-6.38-6.38"/>
    </g>
  </g>
</svg>