<?xml version="1.0" encoding="UTF-8"?>
<svg id="_图层_2" data-name="图层 2" xmlns="http://www.w3.org/2000/svg" viewBox="0 0 42.52 42.52">
  <defs>
    <style>
      .cls-1 {
        fill: #fff;
        stroke-width: 0px;
      }
    </style>
  </defs>
  <g id="_图层_1-2" data-name="图层 1">
    <g>
      <path class="cls-1" d="M37.63,21.49l1.3,1.3-1.68,1.68-2.73-2.73c4.62-1.34,7.99-5.6,7.99-10.65,0-6.12-4.96-11.09-11.09-11.09-5.05,0-9.31,3.38-10.65,7.99l-2.73-2.73,1.68-1.68,1.3,1.3c.34-.57.72-1.1,1.15-1.61l-2.37-2.37-1.38,1.38-3.05,3.05,21.8,21.8,3.05-3.06,1.38-1.38-2.37-2.37c-.5.43-1.04.81-1.61,1.15M32.76,17.28h-2.77v-2.5h-3.17v-1.82h3.17v-1.37h-3.17v-1.8h2.55l-3.4-5.98h2.96c1.34,2.77,2.18,4.6,2.54,5.48h.06c.05-.13.1-.29.17-.48.1-.31.52-1.21,1.25-2.71l1.09-2.29h2.8l-3.5,5.98h2.48v1.8h-3.06v1.37h3.06v1.82h-3.06v2.5Z"/>
      <polygon class="cls-1" points="26.93 20.07 26.93 27.87 22.17 27.87 22.17 25.81 24.82 25.81 24.82 22.13 2.11 22.13 2.11 25.81 4.76 25.81 4.76 27.87 0 27.87 0 20.07 26.93 20.07"/>
      <polygon class="cls-1" points="21.37 23.25 21.37 42.52 5.56 42.52 5.56 23.25 7.12 23.25 7.12 41.15 19.81 41.15 19.81 23.25 21.37 23.25"/>
      <path class="cls-1" d="M10.39,36.56c0,.43-.35.77-.77.77s-.77-.35-.77-.77.35-.77.77-.77.77.35.77.77"/>
      <path class="cls-1" d="M12.96,36.56c0,.43-.35.77-.77.77s-.77-.35-.77-.77.35-.77.77-.77.77.35.77.77"/>
      <path class="cls-1" d="M15.52,36.56c0,.43-.35.77-.77.77s-.77-.35-.77-.77.35-.77.77-.77.77.35.77.77"/>
      <path class="cls-1" d="M18.08,36.56c0,.43-.35.77-.77.77s-.77-.35-.77-.77.35-.77.77-.77.77.35.77.77"/>
    </g>
  </g>
</svg>