<?xml version="1.0" encoding="UTF-8"?>
<svg id="_图层_2" data-name="图层 2" xmlns="http://www.w3.org/2000/svg" viewBox="0 0 20.86 56.69">
  <defs>
    <style>
      .cls-1 {
        fill: #e61673;
        stroke-width: 0px;
      }
    </style>
  </defs>
  <g id="_图层_1-2" data-name="图层 1">
    <g>
      <path class="cls-1" d="M14.29,3.86c0,2.13-1.73,3.86-3.86,3.86s-3.86-1.73-3.86-3.86,1.73-3.86,3.86-3.86,3.86,1.73,3.86,3.86"/>
      <path class="cls-1" d="M20.26,39.14h-4.48c-.12,0-.21.09-.21.21v15.07c0,1.26-1.02,2.27-2.28,2.27-.63,0-1.2-.25-1.61-.67-.41-.41-.67-.98-.67-1.61v-14.68c0-.33-.27-.6-.6-.6s-.6.27-.6.6v14.68c0,1.26-1.02,2.27-2.27,2.27-.63,0-1.2-.25-1.61-.67-.41-.41-.67-.98-.67-1.61v-15.07c0-.12-.09-.21-.21-.21H.6c-.42,0-.71-.43-.55-.82l5.99-14.44c.1-.26.16-.53.16-.8v-7.92c0-.16-.13-.29-.29-.29s-.29.13-.29.29v7.78c0,.22-.04.43-.12.63l-1.55,3.75-.73,1.75c-.34.83-1.3,1.23-2.14.88-.63-.26-1.01-.87-1.01-1.51,0-.21.04-.42.12-.63l2.03-4.9c.08-.19.12-.41.12-.63v-8.58c0-2.77,2.25-5.02,5.02-5.02h.3c.7.71,1.68,1.16,2.76,1.16s2.06-.44,2.76-1.16h.3c2.77,0,5.02,2.25,5.02,5.02v8.57c0,.22.04.43.12.63l2.03,4.9c.39.94-.16,2.03-1.21,2.24-.77.15-1.53-.3-1.83-1.03l-.64-1.54-1.62-3.9c-.08-.2-.12-.41-.12-.63v-7.79c0-.14-.1-.26-.23-.29-.02,0-.04,0-.06,0-.02,0-.04,0-.06,0-.14.03-.23.15-.23.29v7.92c0,.28.05.55.16.8l5.99,14.44c.16.39-.13.82-.55.82"/>
    </g>
  </g>
</svg>