<?xml version="1.0" encoding="UTF-8"?>
<svg id="_图层_2" data-name="图层 2" xmlns="http://www.w3.org/2000/svg" viewBox="0 0 18.02 56.69">
  <defs>
    <style>
      .cls-1 {
        fill: #00a0e9;
        stroke-width: 0px;
      }
    </style>
  </defs>
  <g id="_图层_1-2" data-name="图层 1">
    <g>
      <path class="cls-1" d="M12.87,3.86c0,2.13-1.73,3.86-3.86,3.86s-3.86-1.73-3.86-3.86,1.73-3.86,3.86-3.86,3.86,1.73,3.86,3.86"/>
      <path class="cls-1" d="M18.02,13.71v17.32c0,.91-.73,1.64-1.63,1.64h0c-.9,0-1.63-.73-1.63-1.64v-15.87c0-.16-.13-.29-.29-.29h0c-.16,0-.29.13-.29.29v39.26c0,1.26-1.02,2.27-2.28,2.27-.63,0-1.2-.25-1.61-.67-.41-.41-.67-.98-.67-1.61v-22.99c0-.33-.27-.6-.6-.6s-.6.27-.6.6v22.99c0,1.26-1.02,2.27-2.27,2.27-.63,0-1.2-.25-1.61-.67-.41-.41-.67-.98-.67-1.61V15.16c0-.16-.13-.29-.3-.29s-.29.13-.29.29v15.87c0,.9-.73,1.63-1.63,1.63-.45,0-.86-.18-1.16-.48-.29-.3-.48-.71-.48-1.16V13.71c0-2.77,2.25-5.02,5.02-5.02h7.97c2.77,0,5.02,2.25,5.02,5.02"/>
    </g>
  </g>
</svg>