<?xml version="1.0" encoding="UTF-8"?>
<svg id="_图层_2" data-name="图层 2" xmlns="http://www.w3.org/2000/svg" viewBox="0 0 53.08 56.69">
  <defs>
    <style>
      .cls-1 {
        fill: #00a0e9;
      }

      .cls-1, .cls-2, .cls-3 {
        stroke-width: 0px;
      }

      .cls-2 {
        fill: #e61673;
      }

      .cls-3 {
        fill: #fff;
      }
    </style>
  </defs>
  <g id="_图层_1-2" data-name="图层 1">
    <g>
      <path class="cls-1" d="M12.7,4.54c0,2.11-1.71,3.81-3.81,3.81s-3.81-1.71-3.81-3.81,1.71-3.81,3.81-3.81,3.81,1.71,3.81,3.81"/>
      <path class="cls-1" d="M17.78,14.26v17.1c0,.9-.72,1.62-1.61,1.62h0c-.89,0-1.61-.72-1.61-1.62v-15.67c0-.16-.12-.29-.29-.29h0c-.16,0-.29.13-.29.29v38.76c0,1.24-1,2.24-2.24,2.24-.62,0-1.18-.25-1.59-.66-.41-.4-.66-.97-.66-1.59v-22.7c0-.33-.26-.59-.59-.59s-.59.26-.59.59v22.7c0,1.24-1,2.24-2.25,2.24-.62,0-1.18-.25-1.59-.66-.41-.4-.66-.97-.66-1.59V15.69c0-.16-.13-.29-.29-.29s-.29.13-.29.29v15.67c0,.89-.72,1.61-1.61,1.61-.45,0-.85-.18-1.14-.47-.29-.3-.47-.7-.47-1.14V14.26c0-2.74,2.22-4.96,4.96-4.96h7.87c2.74,0,4.96,2.22,4.96,4.96"/>
      <path class="cls-2" d="M46.6,4.54c0,2.11-1.71,3.81-3.81,3.81s-3.81-1.71-3.81-3.81,1.71-3.81,3.81-3.81,3.81,1.71,3.81,3.81"/>
      <path class="cls-2" d="M52.5,39.36h-4.42c-.12,0-.21.09-.21.21v14.88c0,1.24-1,2.25-2.25,2.25-.62,0-1.18-.25-1.59-.66-.41-.4-.66-.97-.66-1.59v-14.49c0-.33-.27-.59-.59-.59s-.59.26-.59.59v14.49c0,1.24-1,2.25-2.25,2.25-.62,0-1.18-.25-1.59-.66-.41-.4-.66-.97-.66-1.59v-14.88c0-.12-.09-.21-.21-.21h-4.42c-.42,0-.7-.43-.54-.81l5.91-14.26c.1-.25.16-.52.16-.79v-7.82c0-.16-.13-.28-.28-.28s-.28.12-.28.28v7.68c0,.21-.04.43-.12.62l-1.53,3.7-.72,1.73c-.34.83-1.29,1.22-2.11.87-.62-.26-.99-.86-.99-1.49,0-.21.04-.42.12-.62l2-4.83c.08-.19.12-.4.12-.62v-8.47c0-2.74,2.22-4.96,4.96-4.96h.3c.69.7,1.65,1.14,2.72,1.14s2.03-.44,2.72-1.14h.3c2.74,0,4.96,2.22,4.96,4.96v8.46c0,.21.04.42.12.62l2,4.84c.38.93-.16,2-1.2,2.21-.76.15-1.51-.3-1.81-1.02l-.63-1.52-1.6-3.85c-.08-.19-.12-.4-.12-.62v-7.69c0-.14-.09-.26-.22-.28-.02,0-.04,0-.06,0s-.04,0-.06,0c-.13.03-.23.14-.23.28v7.82c0,.27.05.54.16.79l5.91,14.26c.16.39-.12.81-.54.81"/>
      <path class="cls-3" d="M25.84,56.69h0c-.85,0-1.53-.68-1.53-1.53V1.53c0-.85.68-1.53,1.53-1.53s1.53.68,1.53,1.53v53.63c0,.85-.68,1.53-1.53,1.53"/>
    </g>
  </g>
</svg>