<?xml version="1.0" encoding="UTF-8"?>
<svg id="_图层_2" data-name="图层 2" xmlns="http://www.w3.org/2000/svg" viewBox="0 0 56.69 56.69">
  <defs>
    <style>
      .cls-1 {
        fill: #00a0e9;
      }

      .cls-1, .cls-2, .cls-3 {
        stroke-width: 0px;
      }

      .cls-2 {
        fill: #e61673;
      }

      .cls-3 {
        fill: #fff;
      }
    </style>
  </defs>
  <g id="_图层_1-2" data-name="图层 1">
    <g>
      <path class="cls-1" d="M7.62,2.72c0,1.26-1.02,2.29-2.29,2.29s-2.29-1.02-2.29-2.29S4.07.44,5.33.44s2.29,1.02,2.29,2.29"/>
      <path class="cls-1" d="M10.67,8.55v10.25c0,.54-.43.97-.97.97h0c-.54,0-.97-.43-.97-.97v-9.39c0-.1-.08-.17-.17-.17h0c-.1,0-.17.08-.17.17v23.24c0,.74-.6,1.35-1.35,1.35-.37,0-.71-.15-.95-.39-.24-.24-.39-.58-.39-.95v-13.61c0-.2-.16-.35-.36-.35s-.35.16-.35.35v13.61c0,.74-.6,1.35-1.35,1.35-.37,0-.71-.15-.95-.39-.25-.24-.4-.58-.4-.95V9.41c0-.1-.08-.17-.17-.17s-.18.08-.18.17v9.4c0,.53-.43.97-.97.97-.27,0-.51-.11-.68-.28-.18-.18-.28-.42-.28-.68v-10.26c0-1.64,1.33-2.97,2.97-2.97h4.72c1.64,0,2.97,1.33,2.97,2.97"/>
      <path class="cls-2" d="M27.95,2.72c0,1.26-1.02,2.29-2.29,2.29s-2.29-1.02-2.29-2.29,1.02-2.29,2.29-2.29,2.29,1.02,2.29,2.29"/>
      <path class="cls-2" d="M31.48,23.6h-2.65c-.07,0-.12.05-.12.12v8.92c0,.74-.6,1.35-1.35,1.35-.37,0-.71-.15-.95-.4-.24-.24-.4-.58-.4-.95v-8.69c0-.2-.16-.36-.35-.36s-.36.16-.36.36v8.69c0,.74-.6,1.35-1.35,1.35-.37,0-.71-.15-.95-.4-.24-.24-.4-.58-.4-.95v-8.92c0-.07-.05-.12-.12-.12h-2.65c-.25,0-.42-.26-.33-.49l3.55-8.55c.06-.15.09-.31.09-.48v-4.69c0-.09-.08-.17-.17-.17s-.17.07-.17.17v4.61c0,.13-.02.26-.07.37l-.92,2.22-.43,1.04c-.2.49-.77.73-1.27.52-.37-.15-.6-.52-.6-.9,0-.12.02-.25.07-.37l1.2-2.9c.05-.12.07-.24.07-.37v-5.08c0-1.64,1.33-2.97,2.97-2.97h.18c.41.42.99.68,1.63.68s1.22-.26,1.63-.68h.18c1.64,0,2.97,1.33,2.97,2.97v5.07c0,.13.02.25.07.37l1.2,2.9c.23.56-.1,1.2-.72,1.33-.45.09-.91-.18-1.08-.61l-.38-.91-.96-2.31c-.05-.12-.07-.24-.07-.37v-4.61c0-.08-.06-.15-.13-.17-.01,0-.02,0-.04,0s-.02,0-.04,0c-.08.02-.14.09-.14.17v4.69c0,.16.03.32.09.48l3.55,8.55c.1.23-.08.49-.33.49"/>
      <path class="cls-3" d="M15.5,34h0c-.51,0-.92-.41-.92-.92V.92c0-.51.41-.92.92-.92s.92.41.92.92v32.16c0,.51-.41.92-.92.92"/>
      <path class="cls-1" d="M45.87,25.77c1.77.3,2.97,1.98,2.68,3.75l-1.65,9.85-.46,2.76c-.19,1.14-1.18,1.97-2.33,1.97h-11.7c-.35,0-.67.22-.79.55l-3.86,10.38c-.42,1.14-1.69,1.71-2.82,1.29-1.14-.42-1.71-1.68-1.29-2.82l3.49-9.4,1-2.7c.45-1.22,1.62-2.03,2.92-2.03h8.61c.35,0,.65-.26.71-.6l.45-2.69c.04-.22-.13-.41-.35-.41h-5.92c-.8,0-1.46-.65-1.46-1.46s.65-1.46,1.46-1.46h6.29c.31,0,.58-.23.63-.53l.63-3.77c.3-1.77,1.98-2.97,3.75-2.68"/>
      <path class="cls-1" d="M46.83,21.77c0,1.51-1.23,2.74-2.74,2.74s-2.74-1.23-2.74-2.74,1.23-2.74,2.74-2.74,2.74,1.23,2.74,2.74"/>
      <path class="cls-1" d="M56.69,44.86c-.13,6.56-5.58,11.86-12.13,11.83-6.43-.03-11.68-5.08-12.01-11.44,0-.07.06-.14.13-.14h2.29c.07,0,.12.05.13.12.33,5.04,4.56,9.01,9.71,8.92,4.99-.09,9.11-4.09,9.35-9.07.2-4.06-2.15-7.6-5.58-9.16-.05-.02-.08-.08-.07-.13l.39-2.31c.01-.08.1-.13.17-.1,4.55,1.8,7.74,6.28,7.64,11.49"/>
    </g>
  </g>
</svg>