<?xml version="1.0" encoding="UTF-8"?>
<svg id="_图层_2" data-name="图层 2" xmlns="http://www.w3.org/2000/svg" viewBox="0 0 56.69 56.69">
  <defs>
    <style>
      .cls-1 {
        fill: #fff;
        stroke-width: 0px;
      }
    </style>
  </defs>
  <g id="_图层_1-2" data-name="图层 1">
    <g>
      <g>
        <path class="cls-1" d="M24.47,14.98c1.79,0,3.24-1.45,3.24-3.24s-1.45-3.24-3.24-3.24-3.24,1.45-3.24,3.24,1.45,3.24,3.24,3.24"/>
        <path class="cls-1" d="M28.93,37.83v9.07c0,.71.57,1.28,1.28,1.28h.83v-11.63h-.83c-.71,0-1.28.57-1.28,1.28"/>
        <path class="cls-1" d="M38.38,27.15c0-1-.81-1.81-1.81-1.81h-.75c.77-.07,1.36-.75,1.23-1.55-.11-.66-.73-1.12-1.41-1.12h-6.79c-.14,0-.26-.1-.28-.24l-.54-3.43c-.57-3.62-5.71-3.88-6.64-.33l-4.34,16.57h2.1v1.87c0,.22-.08.44-.22.61l-4.64,5.49c-.95,1.13-.24,3.1,1.86,2.94.21-.02.41-.13.54-.29l2.46-2.91,3.33-3.94c.14-.17.22-.38.22-.6v-3.16h1.63v11.18c0,.98.79,1.77,1.77,1.77s1.78-.79,1.78-1.77v-11.18h2.7l-1.5-9.55c-.03-.17.1-.32.28-.32h5.69c-.94.06-1.69.83-1.69,1.78v9.4h-1.28v11.63h7.58v-11.63h-1.27v-9.4ZM37.34,36.56h-2.95v-9.4c0-.43.35-.77.78-.77h1.4c.43,0,.78.35.78.77v9.4Z"/>
        <path class="cls-1" d="M41.53,36.56h-.85v11.63h.85c.71,0,1.28-.57,1.28-1.28v-9.07c0-.71-.57-1.28-1.28-1.28"/>
      </g>
      <path class="cls-1" d="M50.32,1.5c2.69,0,4.88,2.19,4.88,4.88v43.94c0,2.69-2.19,4.88-4.88,4.88H6.38c-2.69,0-4.88-2.19-4.88-4.88V6.38C1.5,3.69,3.69,1.5,6.38,1.5h43.94ZM50.32,0H6.38C2.86,0,0,2.86,0,6.38v43.94c0,3.52,2.86,6.38,6.38,6.38h43.94c3.52,0,6.38-2.86,6.38-6.38V6.38c0-3.52-2.86-6.38-6.38-6.38"/>
    </g>
  </g>
</svg>