<?xml version="1.0" encoding="UTF-8"?>
<svg id="_图层_2" data-name="图层 2" xmlns="http://www.w3.org/2000/svg" viewBox="0 0 28.94 39.69">
  <defs>
    <style>
      .cls-1 {
        fill: #fff;
        stroke-width: 0px;
      }
    </style>
  </defs>
  <g id="_图层_1-2" data-name="图层 1">
    <g>
      <path class="cls-1" d="M10.59,6.48c1.79,0,3.24-1.45,3.24-3.24s-1.45-3.24-3.24-3.24-3.24,1.45-3.24,3.24,1.45,3.24,3.24,3.24"/>
      <path class="cls-1" d="M15.06,29.33v9.07c0,.71.57,1.28,1.28,1.28h.83v-11.63h-.83c-.71,0-1.28.57-1.28,1.28"/>
      <path class="cls-1" d="M24.5,18.65c0-1-.81-1.81-1.81-1.81h-.75c.77-.07,1.36-.75,1.23-1.55-.11-.66-.73-1.12-1.41-1.12h-6.79c-.14,0-.26-.1-.28-.24l-.54-3.43c-.57-3.62-5.71-3.88-6.64-.33L3.18,26.74h2.1v1.87c0,.22-.08.44-.22.61L.41,34.71c-.95,1.13-.24,3.1,1.86,2.94.21-.02.41-.13.54-.29l2.46-2.91,3.33-3.94c.14-.17.22-.38.22-.6v-3.16h1.63v11.18c0,.98.79,1.77,1.77,1.77s1.78-.79,1.78-1.77v-11.18h2.7l-1.5-9.55c-.03-.17.1-.32.28-.32h5.69c-.94.06-1.69.83-1.69,1.78v9.4h-1.28v11.63h7.58v-11.63h-1.27v-9.4ZM23.47,28.05h-2.95v-9.4c0-.43.35-.77.78-.77h1.4c.43,0,.78.35.78.77v9.4Z"/>
      <path class="cls-1" d="M27.65,28.05h-.85v11.63h.85c.71,0,1.28-.57,1.28-1.28v-9.07c0-.71-.57-1.28-1.28-1.28"/>
    </g>
  </g>
</svg>