<?xml version="1.0" encoding="UTF-8"?>
<svg id="_图层_2" data-name="图层 2" xmlns="http://www.w3.org/2000/svg" viewBox="0 0 41.1 14.03">
  <defs>
    <style>
      .cls-1 {
        fill: #fff;
        stroke-width: 0px;
      }
    </style>
  </defs>
  <g id="_图层_1-2" data-name="图层 1">
    <g>
      <polygon class="cls-1" points="0 14.03 0 0 9.57 0 9.57 2.38 2.61 2.38 2.61 5.49 9.09 5.49 9.09 7.85 2.61 7.85 2.61 11.67 9.82 11.67 9.82 14.03 0 14.03"/>
      <polygon class="cls-1" points="11.62 14.03 16.03 6.71 12.03 0 15.08 0 17.67 4.51 20.2 0 23.22 0 19.21 6.82 23.62 14.03 20.47 14.03 17.61 9.18 14.74 14.03 11.62 14.03"/>
      <rect class="cls-1" x="25.78" y="0" width="2.61" height="14.03"/>
      <polygon class="cls-1" points="34.67 14.03 34.67 2.38 30.84 2.38 30.84 0 41.1 0 41.1 2.38 37.28 2.38 37.28 14.03 34.67 14.03"/>
    </g>
  </g>
</svg>