<?xml version="1.0" encoding="UTF-8"?>
<svg id="_图层_2" data-name="图层 2" xmlns="http://www.w3.org/2000/svg" viewBox="0 0 73.7 85.04">
  <defs>
    <style>
      .cls-1 {
        fill: #009f3c;
      }

      .cls-1, .cls-2 {
        stroke-width: 0px;
      }

      .cls-2 {
        fill: #fff;
      }
    </style>
  </defs>
  <g id="_图层_1-2" data-name="图层 1">
    <g>
      <rect class="cls-1" width="73.7" height="85.04"/>
      <g>
        <polygon class="cls-2" points="7.09 70.86 7.09 53.86 19.52 53.86 19.52 56.73 10.47 56.73 10.47 60.5 18.89 60.5 18.89 63.37 10.47 63.37 10.47 68 19.84 68 19.84 70.86 7.09 70.86"/>
        <polygon class="cls-2" points="23.39 70.86 29.12 61.99 23.92 53.86 27.88 53.86 31.24 59.32 34.54 53.86 38.46 53.86 33.25 62.12 38.98 70.86 34.89 70.86 31.18 64.98 27.45 70.86 23.39 70.86"/>
        <rect class="cls-2" x="44.65" y="53.86" width="3.54" height="17.01"/>
        <polygon class="cls-2" points="58.62 70.86 58.62 56.73 53.86 56.73 53.86 53.86 66.61 53.86 66.61 56.73 61.86 56.73 61.86 70.86 58.62 70.86"/>
        <path class="cls-2" d="M39.28,15.9v30.87h4.86v-1.42h19.02v1.42h4.86V15.9h-28.75ZM44.15,21.13h19.02v18.99h-19.02v-18.99Z"/>
        <polygon class="cls-2" points="34.42 27.43 34.42 15.9 29.55 15.9 29.55 22.81 22.54 22.81 22.54 14.17 17.55 14.17 17.55 22.81 10.53 22.81 10.53 15.9 5.67 15.9 5.67 27.43 17.55 27.43 17.55 40.12 10.53 40.12 10.53 31.41 5.67 31.41 5.67 45.35 29.55 45.35 29.55 46.77 34.42 46.77 34.42 45.35 34.42 31.41 29.55 31.41 29.55 40.12 22.54 40.12 22.54 27.43 34.42 27.43"/>
      </g>
    </g>
  </g>
</svg>