<?xml version="1.0" encoding="UTF-8"?>
<svg id="_图层_2" data-name="图层 2" xmlns="http://www.w3.org/2000/svg" viewBox="0 0 63.78 85.04">
  <defs>
    <style>
      .cls-1 {
        fill: #009f3c;
      }

      .cls-1, .cls-2 {
        stroke-width: 0px;
      }

      .cls-2 {
        fill: #fff;
      }
    </style>
  </defs>
  <g id="_图层_1-2" data-name="图层 1">
    <g>
      <rect class="cls-1" x="0" width="63.78" height="85.04"/>
      <polygon class="cls-2" points="35.46 47.66 45.49 47.66 45.49 36.91 52.44 36.91 52.44 54.99 11.34 54.99 11.34 36.91 18.29 36.91 18.29 47.66 28.32 47.66 28.32 32.47 11.91 32.47 11.91 14.32 18.87 14.32 18.87 24.85 28.32 24.85 28.32 11.34 35.46 11.34 35.46 24.85 45.49 24.85 45.49 14.32 51.87 14.32 51.87 32.47 35.46 32.47 35.46 47.66"/>
      <g>
        <polygon class="cls-2" points="11.34 73.7 11.34 59.67 20.91 59.67 20.91 62.04 13.95 62.04 13.95 65.15 20.43 65.15 20.43 67.52 13.95 67.52 13.95 71.34 21.16 71.34 21.16 73.7 11.34 73.7"/>
        <polygon class="cls-2" points="22.96 73.7 27.37 66.38 23.37 59.67 26.42 59.67 29.01 64.18 31.54 59.67 34.56 59.67 30.55 66.48 34.96 73.7 31.81 73.7 28.95 68.85 26.08 73.7 22.96 73.7"/>
        <rect class="cls-2" x="37.12" y="59.67" width="2.61" height="14.03"/>
        <polygon class="cls-2" points="46.01 73.7 46.01 62.04 42.18 62.04 42.18 59.67 52.44 59.67 52.44 62.04 48.62 62.04 48.62 73.7 46.01 73.7"/>
      </g>
    </g>
  </g>
</svg>